<?xml version="1.0" encoding="utf-8"?>
<svg version="1.1" id="Calque_1" xmlns="http://www.w3.org/2000/svg" xmlns:xlink="http://www.w3.org/1999/xlink" x="0px" y="0px"
	 viewBox="0 0 595.3 202.3" style="enable-background:new 0 0 595.3 202.3;" xml:space="preserve">
<style type="text/css">
	.st0{fill:#FFFFFF;}
	.st1{fill:#050810;}
</style>
<g>
	<path class="st1" d="M589.3,172.3c0,14.5-11.6,26.3-25.9,26.3H30.1c-14.3,0-25.9-11.8-25.9-26.3V30.1c0-14.5,11.6-26.3,25.9-26.3
		h533.3c14.3,0,25.9,11.8,25.9,26.3V172.3z"/>
	<g>
		<path class="st0" d="M181.7,53.2c0,5.1-1.4,8.9-4.1,11.6c-2.8,2.7-6.7,4-11.9,4h-8.5V38.2h9.4c4.8,0,8.5,1.3,11.1,4
			C180.4,44.8,181.7,48.5,181.7,53.2z M177.9,53.3c0-4-1-7-3-9.1s-5-3-9-3h-5.2v24.5h4.3c4.3,0,7.5-1,9.6-3.1
			C176.8,60.5,177.9,57.4,177.9,53.3z"/>
		<path class="st0" d="M187.7,39.6c0-0.8,0.2-1.4,0.6-1.8c0.4-0.4,0.9-0.6,1.5-0.6c0.6,0,1,0.2,1.4,0.6c0.4,0.4,0.6,1,0.6,1.7
			s-0.2,1.4-0.6,1.8c-0.4,0.4-0.9,0.6-1.4,0.6c-0.6,0-1.1-0.2-1.5-0.6C187.9,41,187.7,40.4,187.7,39.6z M191.5,68.9H188v-23h3.5
			V68.9z"/>
		<path class="st0" d="M213.7,62.6c0,2.1-0.8,3.8-2.4,5c-1.6,1.2-3.8,1.7-6.7,1.7c-3.1,0-5.4-0.5-7.1-1.4v-3.2
			c1.1,0.6,2.3,1,3.6,1.3c1.3,0.3,2.5,0.5,3.7,0.5c1.8,0,3.2-0.3,4.2-0.9c1-0.6,1.5-1.5,1.5-2.7c0-0.9-0.4-1.7-1.2-2.3
			c-0.8-0.6-2.3-1.4-4.5-2.3c-2.1-0.8-3.7-1.5-4.6-2.1c-0.9-0.6-1.6-1.3-2-2s-0.7-1.7-0.7-2.7c0-1.9,0.8-3.4,2.3-4.4
			s3.6-1.6,6.3-1.6c2.5,0,4.9,0.5,7.3,1.5l-1.2,2.8c-2.3-1-4.4-1.4-6.3-1.4c-1.7,0-2.9,0.3-3.7,0.8c-0.8,0.5-1.3,1.2-1.3,2.1
			c0,0.6,0.2,1.1,0.5,1.6s0.8,0.8,1.5,1.2c0.7,0.4,2,1,4,1.7c2.7,1,4.6,2,5.5,3S213.7,61,213.7,62.6z"/>
		<path class="st0" d="M230.1,69.3c-1.5,0-2.9-0.3-4.1-0.8c-1.2-0.6-2.3-1.4-3.1-2.6h-0.3c0.2,1.3,0.3,2.6,0.3,3.8v9.5h-3.5V45.8
			h2.8l0.5,3.1h0.2c0.9-1.3,1.9-2.2,3.1-2.7c1.2-0.6,2.6-0.8,4.1-0.8c3.1,0,5.4,1,7.1,3.1s2.5,5,2.5,8.8c0,3.8-0.8,6.7-2.5,8.8
			S233.1,69.3,230.1,69.3z M229.6,48.4c-2.4,0-4.1,0.7-5.1,2s-1.6,3.4-1.6,6.2v0.8c0,3.2,0.5,5.5,1.6,6.9c1.1,1.4,2.8,2.1,5.2,2.1
			c2,0,3.5-0.8,4.7-2.4c1.1-1.6,1.7-3.8,1.7-6.7c0-2.9-0.6-5.1-1.7-6.6C233.2,49.1,231.6,48.4,229.6,48.4z"/>
		<path class="st0" d="M265.6,57.3c0,3.8-0.9,6.7-2.8,8.8c-1.9,2.1-4.5,3.2-7.8,3.2c-2.1,0-3.9-0.5-5.5-1.4c-1.6-1-2.8-2.4-3.7-4.2
			c-0.9-1.8-1.3-3.9-1.3-6.3c0-3.8,0.9-6.7,2.8-8.8s4.5-3.1,7.8-3.1c3.2,0,5.8,1.1,7.7,3.2C264.7,50.8,265.6,53.7,265.6,57.3z
			 M248.1,57.3c0,2.9,0.6,5.2,1.8,6.7c1.2,1.5,2.9,2.3,5.2,2.3c2.3,0,4-0.8,5.2-2.3c1.2-1.5,1.8-3.8,1.8-6.7c0-2.9-0.6-5.1-1.8-6.7
			s-2.9-2.3-5.2-2.3c-2.3,0-4,0.7-5.2,2.2C248.7,52.1,248.1,54.4,248.1,57.3z"/>
		<path class="st0" d="M287.5,68.9V54c0-1.9-0.4-3.3-1.3-4.2c-0.9-0.9-2.2-1.4-4-1.4c-2.4,0-4.2,0.7-5.3,2c-1.1,1.3-1.7,3.5-1.7,6.4
			v12.1h-3.5v-23h2.8l0.6,3.1h0.2c0.7-1.1,1.7-2,3-2.6s2.7-0.9,4.3-0.9c2.8,0,4.9,0.7,6.3,2s2.1,3.5,2.1,6.4v15H287.5z"/>
		<path class="st0" d="M297.8,39.6c0-0.8,0.2-1.4,0.6-1.8c0.4-0.4,0.9-0.6,1.5-0.6c0.6,0,1,0.2,1.4,0.6s0.6,1,0.6,1.7
			s-0.2,1.4-0.6,1.8c-0.4,0.4-0.9,0.6-1.4,0.6c-0.6,0-1.1-0.2-1.5-0.6C298,41,297.8,40.4,297.8,39.6z M301.6,68.9h-3.5v-23h3.5V68.9
			z"/>
		<path class="st0" d="M319.7,45.5c3,0,5.4,1,7,3.1c1.7,2.1,2.5,5,2.5,8.8c0,3.8-0.8,6.7-2.5,8.8c-1.7,2.1-4,3.1-7,3.1
			c-1.5,0-2.9-0.3-4.1-0.8c-1.2-0.6-2.3-1.4-3.1-2.6h-0.3l-0.7,3H309V36.2h3.5v7.9c0,1.8-0.1,3.4-0.2,4.8h0.2
			C314.1,46.6,316.5,45.5,319.7,45.5z M319.2,48.4c-2.4,0-4.1,0.7-5.1,2c-1,1.4-1.6,3.7-1.6,6.9c0,3.2,0.5,5.5,1.6,6.9
			s2.8,2.1,5.2,2.1c2.1,0,3.7-0.8,4.8-2.3c1-1.6,1.6-3.8,1.6-6.7c0-3-0.5-5.2-1.6-6.7S321.4,48.4,319.2,48.4z"/>
		<path class="st0" d="M338.8,68.9h-3.5V36.2h3.5V68.9z"/>
		<path class="st0" d="M355.9,69.3c-3.4,0-6.1-1-8.1-3.1c-2-2.1-3-4.9-3-8.6c0-3.7,0.9-6.7,2.7-8.8c1.8-2.2,4.3-3.3,7.4-3.3
			c2.9,0,5.2,0.9,6.8,2.8c1.7,1.9,2.5,4.4,2.5,7.5V58h-15.9c0.1,2.7,0.8,4.8,2,6.2c1.3,1.4,3.1,2.1,5.5,2.1c2.5,0,4.9-0.5,7.3-1.6
			v3.1c-1.2,0.5-2.4,0.9-3.5,1.1C358.8,69.2,357.5,69.3,355.9,69.3z M355,48.3c-1.8,0-3.3,0.6-4.4,1.8c-1.1,1.2-1.7,2.9-1.9,5h12
			c0-2.2-0.5-3.9-1.5-5.1C358.2,48.9,356.8,48.3,355,48.3z"/>
		<path class="st0" d="M396.4,62.6c0,2.1-0.8,3.8-2.4,5s-3.8,1.7-6.7,1.7c-3.1,0-5.4-0.5-7.1-1.4v-3.2c1.1,0.6,2.3,1,3.6,1.3
			c1.3,0.3,2.5,0.5,3.7,0.5c1.8,0,3.2-0.3,4.2-0.9c1-0.6,1.5-1.5,1.5-2.7c0-0.9-0.4-1.7-1.2-2.3c-0.8-0.6-2.3-1.4-4.5-2.3
			c-2.1-0.8-3.7-1.5-4.6-2.1c-0.9-0.6-1.6-1.3-2-2c-0.4-0.8-0.7-1.7-0.7-2.7c0-1.9,0.8-3.4,2.3-4.4c1.5-1.1,3.6-1.6,6.3-1.6
			c2.5,0,4.9,0.5,7.3,1.5l-1.2,2.8c-2.3-1-4.4-1.4-6.3-1.4c-1.7,0-2.9,0.3-3.7,0.8s-1.3,1.2-1.3,2.1c0,0.6,0.2,1.1,0.5,1.6
			c0.3,0.4,0.8,0.8,1.5,1.2c0.7,0.4,2,1,4,1.7c2.7,1,4.6,2,5.5,3C395.9,59.8,396.4,61,396.4,62.6z"/>
		<path class="st0" d="M405.3,45.8v14.9c0,1.9,0.4,3.3,1.3,4.2c0.9,0.9,2.2,1.4,4,1.4c2.4,0,4.2-0.7,5.3-2c1.1-1.3,1.7-3.5,1.7-6.4
			V45.8h3.5v23h-2.9l-0.5-3.1h-0.2c-0.7,1.1-1.7,2-3,2.6c-1.3,0.6-2.7,0.9-4.3,0.9c-2.8,0-4.9-0.7-6.3-2c-1.4-1.3-2.1-3.5-2.1-6.4
			V45.8H405.3z"/>
		<path class="st0" d="M438.9,45.4c1,0,1.9,0.1,2.8,0.3l-0.5,3.2c-1-0.2-1.8-0.3-2.5-0.3c-1.9,0-3.5,0.8-4.8,2.3
			c-1.3,1.5-2,3.4-2,5.6v12.3h-3.5v-23h2.9l0.4,4.3h0.2c0.9-1.5,1.9-2.7,3.1-3.5C436.2,45.8,437.5,45.4,438.9,45.4z"/>
	</g>
	<g>
		<g>
			<path class="st0" d="M105.2,104.2c-0.1-13.7,11.2-20.4,11.8-20.7c-6.4-9.4-16.4-10.7-19.9-10.8c-8.4-0.9-16.5,5-20.8,5
				c-4.4,0-10.9-4.9-18-4.8c-9.1,0.1-17.7,5.4-22.3,13.6c-9.7,16.7-2.5,41.3,6.8,54.8c4.6,6.6,10,14,17.1,13.8
				c6.9-0.3,9.5-4.4,17.9-4.4c8.3,0,10.7,4.4,17.9,4.3c7.4-0.1,12.1-6.7,16.6-13.3c5.3-7.6,7.5-15.1,7.6-15.4
				C119.6,126.1,105.4,120.7,105.2,104.2z"/>
			<path class="st0" d="M91.6,63.8c3.7-4.7,6.3-11,5.6-17.4c-5.4,0.2-12.1,3.7-16,8.3c-3.4,4-6.5,10.6-5.7,16.8
				C81.5,71.9,87.7,68.4,91.6,63.8z"/>
		</g>
	</g>
	<g>
		<path class="st0" d="M166.2,150.9h-9.5V88.8h9.5V150.9z"/>
		<path class="st0" d="M190.9,90.2c-2.5,8.8-5.5,16.1-8.9,21.7l-5.9,0.6c2.6-7,4.4-14.2,5.5-21.5L190.9,90.2z"/>
		<path class="st0" d="M237.2,150.9h-10.1l-5.5-17.3h-19.2l-5.3,17.3h-9.8l19-59.1h11.7L237.2,150.9z M220,126.3l-5-15.4
			c-0.5-1.6-1.5-5.3-3-11.1h-0.2c-0.6,2.5-1.5,6.2-2.8,11.1l-4.9,15.4H220z"/>
		<path class="st0" d="M286.1,129.1c0,7.2-2,13-5.9,17.2c-3.5,3.7-7.9,5.6-13.1,5.6c-5.6,0-9.6-2-12.1-6h-0.2v22.4h-9.5v-45.9
			c0-4.6-0.1-9.2-0.4-14h8.3l0.5,6.8h0.2c3.2-5.1,7.9-7.6,14.4-7.6c5,0,9.2,2,12.6,6C284.5,117.4,286.1,122.6,286.1,129.1z
			 M276.5,129.4c0-4.1-0.9-7.6-2.8-10.2c-2-2.8-4.8-4.2-8.2-4.2c-2.3,0-4.5,0.8-6.4,2.3c-1.9,1.5-3.1,3.6-3.7,6.1
			c-0.3,1.2-0.4,2.1-0.4,2.9v7.1c0,3.1,0.9,5.7,2.8,7.8c1.9,2.1,4.4,3.2,7.4,3.2c3.6,0,6.3-1.4,8.3-4.1
			C275.5,137.5,276.5,133.9,276.5,129.4z"/>
		<path class="st0" d="M335.1,129.1c0,7.2-2,13-5.9,17.2c-3.5,3.7-7.9,5.6-13.1,5.6c-5.6,0-9.6-2-12.1-6h-0.2v22.4h-9.5v-45.9
			c0-4.6-0.1-9.2-0.3-14h8.3l0.5,6.8h0.2c3.2-5.1,7.9-7.6,14.4-7.6c5,0,9.2,2,12.6,6C333.4,117.4,335.1,122.6,335.1,129.1z
			 M325.5,129.4c0-4.1-0.9-7.6-2.8-10.2c-2-2.8-4.8-4.2-8.2-4.2c-2.3,0-4.5,0.8-6.4,2.3c-1.9,1.5-3.1,3.6-3.7,6.1
			c-0.3,1.2-0.4,2.1-0.4,2.9v7.1c0,3.1,0.9,5.7,2.8,7.8c1.9,2.1,4.4,3.2,7.4,3.2c3.6,0,6.3-1.4,8.3-4.1
			C324.5,137.5,325.5,133.9,325.5,129.4z"/>
		<path class="st0" d="M389.9,134.3c0,5-1.7,9.1-5.2,12.3c-3.9,3.4-9.2,5.2-16.1,5.2c-6.4,0-11.5-1.2-15.3-3.7l2.2-7.9
			c4.1,2.5,8.7,3.8,13.7,3.8c3.6,0,6.3-0.8,8.3-2.4c2-1.6,3-3.8,3-6.5c0-2.4-0.8-4.4-2.5-6.1c-1.6-1.6-4.4-3.2-8.1-4.6
			c-10.3-3.9-15.5-9.5-15.5-16.9c0-4.9,1.8-8.8,5.4-11.9c3.6-3.1,8.4-4.7,14.5-4.7c5.4,0,9.8,0.9,13.4,2.8l-2.4,7.7
			c-3.3-1.8-7.1-2.7-11.3-2.7c-3.3,0-5.9,0.8-7.8,2.5c-1.6,1.5-2.4,3.2-2.4,5.4c0,2.3,0.9,4.3,2.7,5.8c1.6,1.4,4.4,2.9,8.6,4.6
			c5.1,2,8.8,4.4,11.2,7.2C388.7,126.8,389.9,130.2,389.9,134.3z"/>
		<path class="st0" d="M421.2,115.4h-10.4v20.7c0,5.3,1.8,7.9,5.5,7.9c1.7,0,3.1-0.1,4.2-0.4l0.3,7.2c-1.9,0.7-4.3,1.1-7.4,1.1
			c-3.7,0-6.7-1.1-8.8-3.4c-2.1-2.3-3.2-6.1-3.2-11.5v-21.5h-6.2v-7.1h6.2v-7.8l9.3-2.8v10.6h10.4L421.2,115.4z"/>
		<path class="st0" d="M468.2,129.2c0,6.5-1.9,11.9-5.6,16.1c-3.9,4.3-9.1,6.5-15.6,6.5c-6.3,0-11.2-2.1-14.9-6.2
			c-3.7-4.1-5.6-9.4-5.6-15.7c0-6.6,1.9-12,5.7-16.2c3.8-4.2,9-6.3,15.5-6.3c6.3,0,11.3,2.1,15.1,6.2
			C466.4,117.7,468.2,122.9,468.2,129.2z M458.4,129.5c0-3.9-0.8-7.3-2.5-10.1c-2-3.4-4.8-5.1-8.5-5.1c-3.8,0-6.7,1.7-8.7,5.1
			c-1.7,2.8-2.5,6.2-2.5,10.3c0,3.9,0.8,7.3,2.5,10.1c2,3.4,4.9,5.1,8.6,5.1c3.6,0,6.5-1.7,8.5-5.2
			C457.5,136.9,458.4,133.5,458.4,129.5z"/>
		<path class="st0" d="M499,116.6c-0.9-0.2-1.9-0.3-3-0.3c-3.3,0-5.9,1.3-7.7,3.8c-1.6,2.2-2.4,5-2.4,8.4v22.3h-9.5l0.1-29.2
			c0-4.9-0.1-9.4-0.4-13.4h8.2l0.3,8.1h0.3c1-2.8,2.6-5,4.7-6.7c2.1-1.5,4.4-2.3,6.8-2.3c0.9,0,1.7,0.1,2.4,0.2L499,116.6L499,116.6
			z"/>
		<path class="st0" d="M541.3,127.6c0,1.7-0.1,3.1-0.4,4.3h-28.4c0.1,4.2,1.5,7.4,4.1,9.6c2.4,2,5.5,3,9.3,3c4.2,0,8-0.7,11.5-2
			l1.5,6.6c-4,1.8-8.8,2.6-14.3,2.6c-6.6,0-11.8-1.9-15.6-5.8c-3.8-3.9-5.6-9.1-5.6-15.6c0-6.4,1.7-11.8,5.2-16
			c3.7-4.6,8.7-6.8,14.9-6.8c6.1,0,10.8,2.3,13.9,6.8C540,117.8,541.3,122.3,541.3,127.6z M532.3,125.1c0.1-2.8-0.6-5.2-1.8-7.3
			c-1.6-2.6-4.1-3.9-7.5-3.9c-3.1,0-5.6,1.3-7.5,3.9c-1.6,2-2.5,4.5-2.8,7.4L532.3,125.1z"/>
	</g>
</g>
</svg>
