<svg width="166" height="50" viewBox="0 0 166 50" fill="none" xmlns="http://www.w3.org/2000/svg">
<path d="M166 43.0765C166 46.7834 162.709 49.8 158.652 49.8H7.34815C3.29106 49.8 0 46.7834 0 43.0765V6.72351C0 3.01663 3.29106 0 7.34815 0H158.652C162.709 0 166 3.01663 166 6.72351V43.0765Z" fill="#050810"/>
<path d="M50.0108 12.6906C50.0108 14.0056 49.6543 14.9854 48.9667 15.6816C48.2536 16.3778 47.2604 16.713 45.9361 16.713H43.7715V8.82288H46.1654C47.3878 8.82288 48.33 9.15808 48.9921 9.85426C49.6797 10.5247 50.0108 11.4787 50.0108 12.6906ZM49.0431 12.7164C49.0431 11.685 48.7884 10.9114 48.2791 10.37C47.7697 9.82848 47.0057 9.59642 45.9871 9.59642H44.6628V15.9137H45.7579C46.8529 15.9137 47.6679 15.6558 48.2027 15.1143C48.763 14.5729 49.0431 13.7735 49.0431 12.7164Z" fill="white"/>
<path d="M51.5386 9.18389C51.5386 8.97762 51.5895 8.82291 51.6914 8.71977C51.7932 8.61663 51.9206 8.56506 52.0734 8.56506C52.2262 8.56506 52.328 8.61663 52.4299 8.71977C52.5318 8.82291 52.5827 8.97762 52.5827 9.15811C52.5827 9.3386 52.5318 9.5191 52.4299 9.62223C52.328 9.72537 52.2007 9.77694 52.0734 9.77694C51.9206 9.77694 51.7932 9.72537 51.6914 9.62223C51.5895 9.54488 51.5386 9.39017 51.5386 9.18389ZM52.5063 16.7388H51.615V10.8083H52.5063V16.7388Z" fill="white"/>
<path d="M58.1593 15.1144C58.1593 15.6559 57.9556 16.0942 57.5481 16.4036C57.1406 16.713 56.5804 16.842 55.8418 16.842C55.0524 16.842 54.4666 16.713 54.0337 16.481V15.6559C54.3138 15.8106 54.6194 15.9137 54.9505 15.9911C55.2816 16.0684 55.5872 16.12 55.8928 16.12C56.3512 16.12 56.7077 16.0426 56.9624 15.8879C57.217 15.7332 57.3444 15.5011 57.3444 15.1917C57.3444 14.9597 57.2425 14.7534 57.0388 14.5987C56.835 14.444 56.453 14.2377 55.8928 14.0056C55.358 13.7994 54.9505 13.6189 54.7213 13.4642C54.4921 13.3095 54.3138 13.129 54.212 12.9485C54.1101 12.768 54.0337 12.5101 54.0337 12.2523C54.0337 11.7624 54.2374 11.3756 54.6194 11.1178C55.0014 10.8599 55.5362 10.7052 56.2238 10.7052C56.8605 10.7052 57.4717 10.8341 58.0829 11.092L57.7773 11.8139C57.1916 11.5561 56.6568 11.453 56.1729 11.453C55.74 11.453 55.4344 11.5303 55.2306 11.6592C55.0269 11.7882 54.8996 11.9686 54.8996 12.2007C54.8996 12.3554 54.9505 12.4843 55.0269 12.6133C55.1033 12.7422 55.2306 12.8195 55.4089 12.9227C55.5872 13.0258 55.9182 13.1805 56.4276 13.361C57.1152 13.6189 57.599 13.8767 57.8282 14.1346C58.0574 14.3924 58.1593 14.7018 58.1593 15.1144Z" fill="white"/>
<path d="M62.3382 16.842C61.9562 16.842 61.5997 16.7646 61.2941 16.6357C60.9885 16.481 60.7083 16.2747 60.5046 15.9653H60.4282C60.4792 16.3005 60.5046 16.6357 60.5046 16.9451V19.3947H59.6133V10.7826H60.3263L60.4537 11.5819H60.5046C60.7338 11.2467 60.9885 11.0146 61.2941 10.8857C61.5997 10.731 61.9562 10.6794 62.3382 10.6794C63.1277 10.6794 63.7134 10.9373 64.1463 11.4788C64.5793 12.0202 64.783 12.768 64.783 13.7478C64.783 14.7276 64.5793 15.4754 64.1463 16.0169C63.7134 16.5583 63.1022 16.842 62.3382 16.842ZM62.2109 11.453C61.5997 11.453 61.1667 11.6335 60.9121 11.9687C60.6574 12.3039 60.5046 12.8454 60.5046 13.5673V13.7736C60.5046 14.5987 60.6319 15.1918 60.9121 15.5527C61.1922 15.9137 61.6251 16.0942 62.2363 16.0942C62.7457 16.0942 63.1277 15.8879 63.4333 15.4754C63.7134 15.0628 63.8662 14.4956 63.8662 13.7478C63.8662 13.0001 63.7134 12.4328 63.4333 12.046C63.1277 11.6335 62.7202 11.453 62.2109 11.453Z" fill="white"/>
<path d="M71.3783 13.7478C71.3783 14.7276 71.1491 15.4754 70.6653 16.0168C70.1814 16.5583 69.5193 16.842 68.6789 16.842C68.1441 16.842 67.6857 16.713 67.2782 16.481C66.8707 16.2231 66.5651 15.8621 66.336 15.398C66.1068 14.9339 66.0049 14.3924 66.0049 13.7736C66.0049 12.7938 66.2341 12.046 66.7179 11.5045C67.2018 10.963 67.864 10.7052 68.7043 10.7052C69.5193 10.7052 70.1814 10.9888 70.6653 11.5303C71.1491 12.0718 71.3783 12.8195 71.3783 13.7478ZM66.9217 13.7478C66.9217 14.4955 67.0745 15.0886 67.3801 15.4754C67.6857 15.8621 68.1186 16.0684 68.7043 16.0684C69.2901 16.0684 69.723 15.8621 70.0286 15.4754C70.3342 15.0886 70.487 14.4955 70.487 13.7478C70.487 13 70.3342 12.4328 70.0286 12.0202C69.723 11.6077 69.2901 11.4272 68.7043 11.4272C68.1186 11.4272 67.6857 11.6077 67.3801 11.9944C67.0745 12.407 66.9217 13 66.9217 13.7478Z" fill="white"/>
<path d="M76.9539 16.7388V12.8969C76.9539 12.407 76.852 12.046 76.6228 11.8139C76.3936 11.5819 76.0626 11.453 75.6042 11.453C74.993 11.453 74.5346 11.6334 74.2544 11.9686C73.9743 12.3038 73.8215 12.8711 73.8215 13.6189V16.7388H72.9302V10.8083H73.6432L73.796 11.6077H73.847C74.0252 11.324 74.2799 11.092 74.611 10.9373C74.942 10.7826 75.2986 10.7052 75.706 10.7052C76.4191 10.7052 76.9539 10.8857 77.3104 11.2209C77.667 11.5561 77.8452 12.1234 77.8452 12.8711V16.7388H76.9539V16.7388Z" fill="white"/>
<path d="M79.5771 9.18389C79.5771 8.97762 79.6281 8.82291 79.7299 8.71977C79.8318 8.61663 79.9591 8.56506 80.1119 8.56506C80.2647 8.56506 80.3666 8.61663 80.4685 8.71977C80.5703 8.82291 80.6213 8.97762 80.6213 9.15811C80.6213 9.3386 80.5703 9.5191 80.4685 9.62223C80.3666 9.72537 80.2393 9.77694 80.1119 9.77694C79.9591 9.77694 79.8318 9.72537 79.7299 9.62223C79.6281 9.54488 79.5771 9.39017 79.5771 9.18389ZM80.5449 16.7388H79.6536V10.8083H80.5449V16.7388Z" fill="white"/>
<path d="M85.1546 10.7052C85.9186 10.7052 86.5298 10.963 86.9373 11.5045C87.3702 12.046 87.574 12.7937 87.574 13.7735C87.574 14.7534 87.3702 15.5011 86.9373 16.0426C86.5044 16.5841 85.9186 16.8419 85.1546 16.8419C84.7726 16.8419 84.4161 16.7646 84.1105 16.6356C83.8049 16.4809 83.5248 16.2747 83.321 15.9652H83.2446L83.0664 16.7388H82.4297V8.30719H83.321V10.3442C83.321 10.8083 83.2956 11.2209 83.2701 11.5818H83.321C83.7285 10.9888 84.3397 10.7052 85.1546 10.7052ZM85.0273 11.4529C84.4161 11.4529 83.9832 11.6334 83.7285 11.9686C83.4738 12.3296 83.321 12.9226 83.321 13.7478C83.321 14.5729 83.4484 15.1659 83.7285 15.5269C84.0086 15.8879 84.4415 16.0684 85.0527 16.0684C85.5875 16.0684 85.995 15.8621 86.2752 15.4753C86.5298 15.0628 86.6826 14.4955 86.6826 13.7478C86.6826 12.9742 86.5553 12.407 86.2752 12.0202C85.995 11.6334 85.5876 11.4529 85.0273 11.4529Z" fill="white"/>
<path d="M90.0178 16.7388H89.1265V8.30719H90.0178V16.7388Z" fill="white"/>
<path d="M94.3751 16.842C93.5093 16.842 92.8217 16.5841 92.3123 16.0426C91.803 15.5011 91.5483 14.7792 91.5483 13.8251C91.5483 12.8711 91.7775 12.0976 92.2359 11.5561C92.6943 10.9888 93.331 10.7052 94.1205 10.7052C94.859 10.7052 95.4447 10.9373 95.8522 11.4272C96.2851 11.9171 96.4889 12.5617 96.4889 13.361V13.9283H92.4397C92.4651 14.6245 92.6434 15.1659 92.949 15.5269C93.2801 15.8879 93.7385 16.0684 94.3497 16.0684C94.9863 16.0684 95.5975 15.9395 96.2087 15.6559V16.4552C95.9031 16.5841 95.5975 16.6872 95.3174 16.7388C95.1137 16.8162 94.7826 16.842 94.3751 16.842ZM94.1459 11.4272C93.6875 11.4272 93.3055 11.5819 93.0254 11.8913C92.7453 12.2007 92.5925 12.639 92.5415 13.1805H95.5975C95.5975 12.6133 95.4702 12.1749 95.2155 11.8655C94.9609 11.5819 94.6043 11.4272 94.1459 11.4272Z" fill="white"/>
<path d="M104.687 15.1144C104.687 15.6559 104.483 16.0942 104.076 16.4036C103.668 16.713 103.108 16.842 102.37 16.842C101.58 16.842 100.994 16.713 100.562 16.481V15.6559C100.842 15.8106 101.147 15.9137 101.478 15.9911C101.809 16.0684 102.115 16.12 102.421 16.12C102.879 16.12 103.236 16.0426 103.49 15.8879C103.745 15.7332 103.872 15.5011 103.872 15.1917C103.872 14.9597 103.77 14.7534 103.567 14.5987C103.363 14.444 102.981 14.2377 102.421 14.0056C101.886 13.7994 101.478 13.6189 101.249 13.4642C101.02 13.3095 100.842 13.129 100.74 12.9485C100.638 12.7422 100.562 12.5101 100.562 12.2523C100.562 11.7624 100.765 11.3756 101.147 11.1178C101.529 10.8341 102.064 10.7052 102.752 10.7052C103.388 10.7052 104 10.8341 104.611 11.092L104.305 11.8139C103.719 11.5561 103.185 11.453 102.701 11.453C102.268 11.453 101.962 11.5303 101.758 11.6592C101.555 11.7882 101.427 11.9686 101.427 12.2007C101.427 12.3554 101.478 12.4843 101.555 12.6133C101.631 12.7164 101.758 12.8195 101.937 12.9227C102.115 13.0258 102.446 13.1805 102.955 13.361C103.643 13.6189 104.127 13.8767 104.356 14.1346C104.56 14.3924 104.687 14.7018 104.687 15.1144Z" fill="white"/>
<path d="M106.953 10.7827V14.6246C106.953 15.1145 107.055 15.4755 107.284 15.7075C107.513 15.9396 107.844 16.0685 108.303 16.0685C108.914 16.0685 109.372 15.888 109.652 15.5528C109.932 15.2176 110.085 14.6504 110.085 13.9026V10.7827H110.977V16.7131H110.238L110.111 15.9138H110.06C109.882 16.1974 109.627 16.4295 109.296 16.5842C108.965 16.7389 108.608 16.8163 108.201 16.8163C107.488 16.8163 106.953 16.6358 106.596 16.3006C106.24 15.9654 106.062 15.3981 106.062 14.6504V10.7827H106.953Z" fill="white"/>
<path d="M115.511 10.6794C115.766 10.6794 115.995 10.7052 116.224 10.7568L116.097 11.5819C115.842 11.5303 115.638 11.5046 115.46 11.5046C114.976 11.5046 114.569 11.7108 114.238 12.0976C113.907 12.4844 113.728 12.9743 113.728 13.5415V16.7131H112.837V10.7826H113.575L113.677 11.8913H113.728C113.957 11.5046 114.212 11.1951 114.518 10.9889C114.823 10.7826 115.154 10.6794 115.511 10.6794Z" fill="white"/>
<path d="M30.5282 25.8408C30.5028 22.3083 33.3805 20.5808 33.5333 20.5034C31.9034 18.0797 29.3568 17.7445 28.4654 17.7187C26.3262 17.4866 24.2634 19.0079 23.1684 19.0079C22.0478 19.0079 20.3925 17.7445 18.5844 17.7702C16.2669 17.796 14.0768 19.1626 12.9053 21.2769C10.4351 25.583 12.2686 31.926 14.637 35.4069C15.8085 37.1087 17.1837 39.0168 18.9918 38.9652C20.749 38.8879 21.4112 37.8307 23.5504 37.8307C25.6641 37.8307 26.2753 38.9652 28.1089 38.9394C29.9934 38.9137 31.1904 37.2119 32.3364 35.5101C33.6861 33.5504 34.2464 31.6166 34.2718 31.5392C34.1954 31.4877 30.5792 30.0953 30.5282 25.8408Z" fill="white"/>
<path d="M27.0652 15.4238C28.0074 14.212 28.6696 12.5875 28.4913 10.9373C27.1161 10.9889 25.4098 11.8913 24.4166 13.0774C23.5508 14.1088 22.7613 15.8106 22.965 17.4093C24.493 17.5124 26.072 16.6099 27.0652 15.4238Z" fill="white"/>
<path d="M46.0648 37.8822H43.6455V21.8699H46.0648V37.8822Z" fill="white"/>
<path d="M52.355 22.231C51.7183 24.5 50.9543 26.3823 50.0885 27.8262L48.5859 27.9809C49.2481 26.176 49.7065 24.3195 49.9866 22.4372L52.355 22.231Z" fill="white"/>
<path d="M64.1429 37.8822H61.5708L60.1701 33.4214H55.2805L53.9308 37.8822H51.4351L56.2737 22.6434H59.2533L64.1429 37.8822ZM59.7627 31.5391L58.4893 27.5683C58.362 27.1557 58.1073 26.2017 57.7253 24.7062H57.6744C57.5216 25.3508 57.2924 26.3049 56.9613 27.5683L55.7135 31.5391H59.7627Z" fill="white"/>
<path d="M76.5963 32.2612C76.5963 34.1177 76.0869 35.6132 75.0937 36.6961C74.2024 37.6502 73.0819 38.1401 71.7576 38.1401C70.3315 38.1401 69.3128 37.6244 68.6761 36.593H68.6252V42.3688H66.2059V30.5336C66.2059 29.3475 66.1804 28.1614 66.104 26.9237H68.2177L68.3451 28.6771H68.396C69.2109 27.3621 70.4079 26.7175 72.0632 26.7175C73.3365 26.7175 74.4061 27.2332 75.272 28.2645C76.1888 29.2444 76.5963 30.5852 76.5963 32.2612ZM74.1515 32.3385C74.1515 31.2814 73.9223 30.3789 73.4384 29.7085C72.9291 28.9865 72.216 28.6255 71.3501 28.6255C70.7644 28.6255 70.2041 28.8318 69.7203 29.2186C69.2364 29.6054 68.9308 30.1468 68.778 30.7914C68.7016 31.1009 68.6761 31.3329 68.6761 31.5392V33.3699C68.6761 34.1692 68.9053 34.8396 69.3892 35.3811C69.8731 35.9226 70.5097 36.2062 71.2737 36.2062C72.1905 36.2062 72.8781 35.8452 73.3875 35.1491C73.8968 34.4271 74.1515 33.4988 74.1515 32.3385Z" fill="white"/>
<path d="M89.0757 32.2612C89.0757 34.1177 88.5663 35.6132 87.5731 36.6961C86.6818 37.6502 85.5613 38.1401 84.237 38.1401C82.8109 38.1401 81.7922 37.6244 81.1556 36.593H81.1046V42.3688H78.6853V30.5336C78.6853 29.3475 78.6598 28.1614 78.6089 26.9237H80.7226L80.8499 28.6771H80.9009C81.7158 27.3621 82.9127 26.7175 84.5681 26.7175C85.8414 26.7175 86.911 27.2332 87.7769 28.2645C88.6427 29.2444 89.0757 30.5852 89.0757 32.2612ZM86.6309 32.3385C86.6309 31.2814 86.4017 30.3789 85.9178 29.7085C85.4085 28.9865 84.6954 28.6255 83.8295 28.6255C83.2438 28.6255 82.6836 28.8318 82.1997 29.2186C81.7158 29.6054 81.4102 30.1468 81.2574 30.7914C81.181 31.1009 81.1556 31.3329 81.1556 31.5392V33.3699C81.1556 34.1692 81.3847 34.8396 81.8686 35.3811C82.3525 35.9226 82.9892 36.2062 83.7532 36.2062C84.67 36.2062 85.3575 35.8452 85.8669 35.1491C86.3762 34.4271 86.6309 33.4988 86.6309 32.3385Z" fill="white"/>
<path d="M103.033 33.6019C103.033 34.8911 102.6 35.9483 101.708 36.7734C100.715 37.6501 99.3655 38.1142 97.6083 38.1142C95.9785 38.1142 94.6796 37.8048 93.7119 37.1602L94.2722 35.1232C95.3163 35.7678 96.4878 36.103 97.7611 36.103C98.6779 36.103 99.3655 35.8968 99.8748 35.4842C100.384 35.0716 100.639 34.5044 100.639 33.8082C100.639 33.1894 100.435 32.6737 100.002 32.2353C99.5947 31.8228 98.8816 31.4102 97.9394 31.0492C95.3163 30.0436 93.992 28.5997 93.992 26.6916C93.992 25.4282 94.4504 24.4226 95.3672 23.6233C96.284 22.8239 97.5064 22.4114 99.0599 22.4114C100.435 22.4114 101.556 22.6434 102.472 23.1333L101.861 25.1188C101.021 24.6546 100.053 24.4226 98.9835 24.4226C98.1431 24.4226 97.481 24.6289 96.9971 25.0672C96.5897 25.454 96.3859 25.8923 96.3859 26.4596C96.3859 27.0526 96.6151 27.5683 97.0735 27.9551C97.481 28.3161 98.194 28.7028 99.2636 29.1412C100.562 29.6569 101.505 30.2757 102.116 30.9977C102.727 31.6681 103.033 32.5447 103.033 33.6019Z" fill="white"/>
<path d="M111.003 28.7287H108.354V34.0661C108.354 35.4327 108.813 36.1031 109.755 36.1031C110.188 36.1031 110.544 36.0773 110.824 35.9999L110.901 37.8564C110.417 38.0369 109.806 38.1401 109.016 38.1401C108.074 38.1401 107.31 37.8564 106.775 37.2634C106.24 36.6703 105.96 35.6905 105.96 34.2981V28.7544H104.381V26.9237H105.96V24.9125L108.329 24.1906V26.9237H110.977L111.003 28.7287Z" fill="white"/>
<path d="M122.973 32.2869C122.973 33.9629 122.489 35.3553 121.547 36.4382C120.554 37.547 119.23 38.1142 117.574 38.1142C115.97 38.1142 114.722 37.5727 113.78 36.5156C112.837 35.4584 112.354 34.0918 112.354 32.4674C112.354 30.7656 112.837 29.3732 113.805 28.2903C114.773 27.2073 116.097 26.6658 117.752 26.6658C119.357 26.6658 120.63 27.2073 121.598 28.2645C122.515 29.3217 122.973 30.6625 122.973 32.2869ZM120.477 32.3642C120.477 31.3586 120.274 30.482 119.841 29.76C119.331 28.8833 118.618 28.445 117.676 28.445C116.708 28.445 115.97 28.8833 115.46 29.76C115.028 30.482 114.824 31.3586 114.824 32.4158C114.824 33.4214 115.028 34.2981 115.46 35.0201C115.97 35.8967 116.708 36.3351 117.651 36.3351C118.567 36.3351 119.306 35.8967 119.815 34.9943C120.248 34.2723 120.477 33.3956 120.477 32.3642Z" fill="white"/>
<path d="M130.816 29.038C130.587 28.9864 130.332 28.9606 130.052 28.9606C129.212 28.9606 128.55 29.2958 128.091 29.9405C127.684 30.5077 127.48 31.2297 127.48 32.1064V37.8563H125.061L125.086 30.3272C125.086 29.0638 125.061 27.9035 124.984 26.8721H127.073L127.149 28.9606H127.225C127.48 28.2387 127.888 27.6714 128.422 27.2331C128.957 26.8463 129.543 26.64 130.154 26.64C130.383 26.64 130.587 26.6658 130.765 26.6916L130.816 29.038Z" fill="white"/>
<path d="M141.588 31.8744C141.588 32.3128 141.562 32.6737 141.486 32.9832H134.254C134.279 34.0661 134.635 34.8912 135.298 35.4585C135.909 35.9742 136.698 36.232 137.666 36.232C138.736 36.232 139.703 36.0515 140.595 35.7163L140.977 37.4181C139.958 37.8823 138.736 38.0885 137.335 38.0885C135.654 38.0885 134.33 37.5986 133.362 36.593C132.394 35.5874 131.936 34.2466 131.936 32.5706C131.936 30.9204 132.369 29.528 133.26 28.4451C134.203 27.259 135.476 26.6917 137.055 26.6917C138.608 26.6917 139.805 27.2848 140.595 28.4451C141.257 29.3475 141.588 30.5078 141.588 31.8744ZM139.296 31.2298C139.321 30.5078 139.143 29.889 138.837 29.3475C138.43 28.6771 137.793 28.3419 136.927 28.3419C136.138 28.3419 135.501 28.6771 135.018 29.3475C134.61 29.8632 134.381 30.5078 134.304 31.2556L139.296 31.2298Z" fill="white"/>
</svg>
