<?xml version="1.0" encoding="UTF-8"?><svg id="a" xmlns="http://www.w3.org/2000/svg" viewBox="0 0 48 48"><defs><style>.b{fill:#21245c;}</style></defs><path class="b" d="M19.1,5.21l-.59,3.05c-.1,.49-.44,.89-.9,1.09-1.11,.48-2.15,1.08-3.11,1.79-.4,.3-.92,.39-1.39,.23l-2.92-1.01c-.68-.23-1.42,.05-1.78,.66l-3.44,5.95c-.36,.62-.23,1.41,.31,1.88l2.34,2.04c.38,.33,.56,.83,.5,1.34-.07,.62-.11,1.21-.11,1.78,0,.82,.08,1.67,.23,2.58h0l-2.95,2.57c-.54,.47-.67,1.26-.31,1.88l3.44,5.95c.36,.62,1.1,.9,1.78,.66l2.92-1.01c.47-.16,.99-.07,1.39,.23,.96,.71,2,1.3,3.11,1.78,.46,.2,.8,.6,.9,1.09l.59,3.05c.14,.7,.75,1.21,1.47,1.21h6.87c.72,0,1.33-.51,1.47-1.21l.59-3.05c.1-.49,.44-.89,.9-1.09,1.11-.48,2.15-1.08,3.11-1.79,.4-.3,.92-.4,1.39-.23l2.92,1.01c.68,.23,1.42-.05,1.78-.67l3.44-5.95c.36-.62,.23-1.4-.31-1.87l-2.34-2.04c-.38-.33-.56-.83-.5-1.34,.07-.62,.11-1.21,.11-1.78,0-.82-.08-1.66-.23-2.58h0l2.95-2.57c.54-.47,.67-1.26,.31-1.87l-3.44-5.95c-.36-.62-1.1-.9-1.78-.66l-2.92,1.01c-.47,.16-.99,.07-1.39-.23-.96-.71-2-1.3-3.11-1.78-.46-.2-.8-.6-.9-1.09l-.59-3.05c-.14-.7-.75-1.21-1.47-1.21h-6.87c-.72,0-1.33,.51-1.47,1.21Zm4.76,2.79h.28c.72,0,1.33,.51,1.47,1.21l.38,1.97c.1,.51,.45,.93,.94,1.11l1.31,.49c1.26,.47,2.39,1.12,3.37,1.93l1.08,.89c.4,.33,.94,.43,1.43,.26l1.89-.65c.68-.23,1.42,.05,1.78,.67l.14,.24c.36,.62,.23,1.41-.31,1.88l-1.52,1.32c-.39,.34-.58,.85-.49,1.36l.22,1.38h0c.12,.75,.18,1.38,.18,1.95s-.05,1.19-.18,1.94l-.22,1.38c-.08,.51,.1,1.03,.49,1.37l1.52,1.32c.54,.47,.67,1.25,.31,1.87l-.14,.24c-.36,.62-1.1,.9-1.78,.67l-1.89-.65c-.49-.17-1.03-.07-1.43,.26l-1.09,.89c-.98,.81-2.11,1.46-3.36,1.93h0l-1.31,.49c-.48,.18-.84,.6-.94,1.11l-.38,1.97c-.14,.7-.75,1.21-1.47,1.21h-.27c-.72,0-1.33-.51-1.47-1.21l-.38-1.97c-.1-.51-.45-.93-.94-1.11l-1.31-.49c-1.26-.47-2.39-1.12-3.37-1.93l-1.08-.89c-.4-.33-.94-.43-1.43-.26l-1.89,.65c-.68,.23-1.42-.05-1.78-.67l-.14-.24c-.36-.62-.23-1.41,.31-1.87l1.52-1.32c.39-.34,.58-.86,.49-1.37l-.22-1.37h0c-.12-.76-.18-1.39-.18-1.95s.05-1.19,.18-1.94l.22-1.38c.08-.51-.1-1.03-.49-1.37l-1.52-1.32c-.54-.47-.67-1.26-.31-1.87l.14-.24c.36-.62,1.1-.9,1.78-.67l1.89,.65c.49,.17,1.03,.07,1.43-.26l1.08-.89c.98-.81,2.11-1.46,3.37-1.93l1.31-.49c.48-.18,.84-.6,.94-1.11l.38-1.97c.14-.7,.75-1.21,1.47-1.21Zm1.71,8.15c-5.6-1.09-10.51,3.82-9.42,9.42,.61,3.14,3.14,5.66,6.27,6.27,5.6,1.09,10.51-3.82,9.42-9.42-.61-3.14-3.14-5.66-6.27-6.27Zm-2.2,3.89c2.72-.4,4.98,1.86,4.58,4.58-.25,1.69-1.63,3.07-3.33,3.33-2.72,.4-4.98-1.86-4.58-4.58,.25-1.69,1.63-3.07,3.33-3.33Z"/></svg>