<?xml version="1.0" encoding="UTF-8"?><svg id="a" xmlns="http://www.w3.org/2000/svg" viewBox="0 0 48 48"><defs><style>.b{fill:#21245c;}</style></defs><path class="b" d="M23.95,4c-.32,.01-.63,.12-.88,.32L8.86,15.52c-1.8,1.42-2.86,3.59-2.86,5.89v19.09c0,1.36,1.14,2.5,2.5,2.5h10c1.36,0,2.5-1.14,2.5-2.5v-10c0-.3,.2-.5,.5-.5h5c.3,0,.5,.2,.5,.5v10c0,1.36,1.14,2.5,2.5,2.5h10c1.36,0,2.5-1.14,2.5-2.5V21.41c0-2.3-1.06-4.47-2.86-5.89L24.93,4.32c-.28-.22-.62-.33-.98-.32Zm.05,3.41l13.29,10.47c1.08,.85,1.71,2.15,1.71,3.53v18.59h-9v-9.5c0-1.91-1.59-3.5-3.5-3.5h-5c-1.91,0-3.5,1.59-3.5,3.5v9.5H9V21.41c0-1.38,.63-2.68,1.71-3.53L24,7.41Z"/></svg>