<?xml version="1.0" encoding="UTF-8"?><svg id="a" xmlns="http://www.w3.org/2000/svg" viewBox="0 0 48 48"><defs><style>.b{fill:none;stroke:#21245c;stroke-miterlimit:10;stroke-width:3px;}</style></defs><circle class="b" cx="24" cy="24" r="18.36"/><path class="b" d="M21.71,22.65v-6.27c0-.51,.42-.93,.93-.93h2.58c.51,0,.93,.42,.93,.93v6.27h5.85c.51,0,.93,.42,.93,.93v2.28c0,.51-.42,.93-.93,.93h-5.85v6.33c0,.51-.41,.93-.93,.93h-2.58c-.51,0-.93-.42-.93-.93v-6.33h-5.79c-.51,0-.93-.42-.93-.93v-2.28c0-.51,.42-.93,.93-.93h5.79Z"/></svg>