<?xml version="1.0" encoding="utf-8"?>
<!-- Generator: Adobe Illustrator 26.1.0, SVG Export Plug-In . SVG Version: 6.00 Build 0)  -->
<svg version="1.1" id="Calque_1" xmlns="http://www.w3.org/2000/svg" xmlns:xlink="http://www.w3.org/1999/xlink" x="0px" y="0px"
	 viewBox="0 0 48 48" style="enable-background:new 0 0 48 48;" xml:space="preserve">
<style type="text/css">
	.st0{fill:none;stroke:#21295C;stroke-width:0.9681;stroke-miterlimit:10;}
</style>
<path class="st0" d="M32.5,3.1c-5.5,0-10,5-10,11.1c0,0.4,0.1,0.7,0.1,1.1c-6.8-0.7-12.8-4.4-16.9-9.9C5.5,5.1,5.2,4.9,4.9,4.9
	C4.6,5,4.3,5.2,4.2,5.4C3.3,7.1,2.8,9,2.8,11c0,2.4,0.8,4.7,2,6.5c-0.2-0.1-0.5-0.2-0.7-0.3c-0.3-0.2-0.6-0.2-0.9,0
	c-0.3,0.2-0.4,0.5-0.4,0.9v0.1c0,3.8,1.8,7,4.3,9c0,0-0.1,0-0.1,0c-0.3-0.1-0.6,0.1-0.8,0.3s-0.3,0.6-0.2,1c1,3.5,3.6,6.2,6.9,7.2
	c-2.6,1.7-5.6,2.7-8.8,2.7c-0.7,0-1.4,0-2-0.1c-0.4-0.1-0.8,0.2-1,0.7c-0.1,0.5,0,1,0.4,1.2c4.1,3,9.1,4.7,14.4,4.7
	c8.6,0,15.3-4,19.8-9.7s6.9-13.1,6.9-19.9c0-0.3,0-0.6,0-0.9c1.7-1.4,3.2-3.1,4.4-5.1C47.1,9,47,8.5,46.8,8.2
	c-0.3-0.4-0.7-0.5-1.1-0.3c-0.5,0.2-1,0.3-1.5,0.4c0.7-1,1.2-2,1.6-3.2c0.1-0.4,0-0.8-0.3-1.1c-0.3-0.3-0.7-0.3-1-0.1
	c-1.6,1-3.3,1.8-5.1,2.2C37.4,4.3,35.1,3.1,32.5,3.1z"/>
</svg>
