<?xml version="1.0" encoding="utf-8"?>
<svg version="1.1" xmlns="http://www.w3.org/2000/svg" xmlns:xlink="http://www.w3.org/1999/xlink" x="0px" y="0px"
	 viewBox="0 0 48 48" style="enable-background:new 0 0 48 48;" xml:space="preserve">
<style type="text/css">
	.st0{fill:#FFFEFE;stroke:#21295C;stroke-width:3;stroke-miterlimit:10;}
</style>
<path class="st0" d="M14.4,2.5C7.9,2.5,2.5,7.9,2.5,14.4v19.1c0,6.6,5.4,11.9,11.9,11.9h19.1c6.6,0,11.9-5.4,11.9-11.9V14.4
	c0-6.6-5.4-11.9-11.9-11.9H14.4z M35.9,9.7c-1.3,0-2.4,1.1-2.4,2.4s1.1,2.4,2.4,2.4c1.3,0,2.4-1.1,2.4-2.4S37.3,9.7,35.9,9.7z
	 M24,16.8c4,0,7.2,3.2,7.2,7.2S28,31.2,24,31.2S16.8,28,16.8,24S20,16.8,24,16.8z"/>
</svg>
