<?xml version="1.0" encoding="utf-8"?>
<!-- Generator: Adobe Illustrator 26.1.0, SVG Export Plug-In . SVG Version: 6.00 Build 0)  -->
<svg version="1.1" id="Calque_1" xmlns="http://www.w3.org/2000/svg" xmlns:xlink="http://www.w3.org/1999/xlink" x="0px" y="0px"
	 viewBox="0 0 48 48" style="enable-background:new 0 0 48 48;" xml:space="preserve">
<style type="text/css">
	.st0{fill:none;stroke:#21295C;stroke-width:3;stroke-linejoin:round;stroke-miterlimit:10;}
</style>
<path class="st0" d="M22,4v6h4V4H22z M11.4,8.6l-2.8,2.8l4.2,4.2l2.8-2.8L11.4,8.6z M36.6,8.6l-4.2,4.2l2.8,2.8l4.2-4.2L36.6,8.6z
	 M24,14c5.5,0,10,4.5,10,10s-4.5,10-10,10s-10-4.5-10-10S18.5,14,24,14z M4,22v4h6v-4H4z M38,22v4h6v-4H38z M12.9,32.3l-4.2,4.2
	l2.8,2.8l4.2-4.2L12.9,32.3z M35.1,32.3l-2.8,2.8l4.2,4.2l2.8-2.8L35.1,32.3z M22,38v6h4v-6H22z"/>
</svg>
