<?xml version="1.0" encoding="utf-8"?>
<!-- Generator: Adobe Illustrator 26.1.0, SVG Export Plug-In . SVG Version: 6.00 Build 0)  -->
<svg version="1.1" id="a" xmlns="http://www.w3.org/2000/svg" xmlns:xlink="http://www.w3.org/1999/xlink" x="0px" y="0px"
	 viewBox="0 0 48 48" style="enable-background:new 0 0 48 48;" xml:space="preserve">
<style type="text/css">
	.st0{fill:none;stroke:#21245C;stroke-width:3;stroke-miterlimit:10;}
	.st1{fill:none;stroke:#21295C;stroke-linejoin:round;}
</style>
<circle class="st0" cx="24" cy="24" r="18.4"/>
<g>
	<path class="st1" d="M22.2,29v-5.8c1.9-0.1,3.4-0.6,4.5-1.4c1.1-0.8,1.6-2,1.6-3.5v-0.5c0-1.2-0.4-2.2-1.1-2.9
		c-0.8-0.7-1.8-1.1-3-1.1c-1.4,0-2.4,0.4-3.3,1.2c-0.8,0.8-1.4,1.8-1.6,3l-2.6-1c0.2-0.8,0.5-1.5,0.9-2.2c0.4-0.7,0.9-1.3,1.5-1.8
		c0.6-0.5,1.4-0.9,2.2-1.2c0.8-0.3,1.8-0.5,2.9-0.5c2.2,0,3.9,0.6,5.2,1.8c1.3,1.2,1.9,2.8,1.9,4.9c0,1.1-0.2,2.1-0.6,2.9
		s-0.9,1.5-1.5,2.1c-0.6,0.6-1.3,1.1-2.1,1.4c-0.8,0.4-1.5,0.6-2.3,0.7V29H22.2z M23.5,36.7c-0.8,0-1.3-0.2-1.6-0.6
		s-0.5-0.9-0.5-1.5v-0.5c0-0.6,0.2-1.1,0.5-1.5c0.3-0.4,0.9-0.6,1.6-0.6c0.8,0,1.3,0.2,1.6,0.6c0.3,0.4,0.5,0.9,0.5,1.5v0.5
		c0,0.6-0.2,1.1-0.5,1.5C24.8,36.5,24.3,36.7,23.5,36.7z"/>
</g>
</svg>
