<?xml version="1.0" encoding="utf-8"?>
<!-- Generator: Adobe Illustrator 26.3.1, SVG Export Plug-In . SVG Version: 6.00 Build 0)  -->
<svg version="1.1" id="Calque_1" xmlns="http://www.w3.org/2000/svg" xmlns:xlink="http://www.w3.org/1999/xlink" x="0px" y="0px"
	 viewBox="0 0 53.5 15.2" style="enable-background:new 0 0 53.5 15.2;" xml:space="preserve">
<style type="text/css">
	.st0{enable-background:new    ;}
	.st1{fill:#21295C;}
	.st2{fill:#FFB0A0;}
	.st3{fill:#EF9A83;}
	.st4{fill:none;stroke:#FFB0A0;stroke-width:0.1628;stroke-miterlimit:10;}
	.st5{fill:#050505;}
</style>
<g id="Calque_1_00000139980674095429468380000006365282186240130751_">
	<g class="st0">
		<path class="st1" d="M1.3,11.6V0.9h4.1C6,0.9,6.6,0.9,7,1c0.5,0.1,1,0.3,1.3,0.5c0.4,0.2,0.6,0.6,0.9,1C9.4,3,9.5,3.4,9.5,4
			c0,0.9-0.3,1.7-0.9,2.3C8,6.9,7,7.2,5.5,7.2H2.7v4.4H1.3z M2.7,6h2.8c0.9,0,1.6-0.2,2-0.5S8,4.6,8,4c0-0.4-0.1-0.8-0.3-1.2
			C7.4,2.5,7.1,2.3,6.8,2.2C6.5,2.2,6.1,2.1,5.4,2.1H2.7V6z"/>
		<path class="st1" d="M11.1,2.4V0.9h1.3v1.5H11.1z M11.1,11.6V3.8h1.3v7.8H11.1z"/>
		<path class="st1" d="M14.2,12.3l1.3,0.2c0.1,0.4,0.2,0.7,0.4,0.9c0.3,0.2,0.8,0.4,1.3,0.4c0.6,0,1.1-0.1,1.4-0.4s0.6-0.6,0.7-1
			c0.1-0.3,0.1-0.8,0.1-1.7c-0.6,0.7-1.3,1-2.2,1c-1.1,0-1.9-0.4-2.5-1.2s-0.9-1.7-0.9-2.8c0-0.7,0.1-1.4,0.4-2.1
			C14.6,5,15,4.5,15.5,4.2c0.5-0.3,1.1-0.5,1.8-0.5c0.9,0,1.7,0.4,2.3,1.1V3.8h1.2v6.7c0,1.2-0.1,2.1-0.4,2.6
			c-0.2,0.5-0.6,0.9-1.2,1.2c-0.5,0.3-1.2,0.4-2,0.4c-0.9,0-1.7-0.2-2.2-0.6C14.5,13.7,14.2,13.1,14.2,12.3z M15.3,7.6
			c0,1,0.2,1.8,0.6,2.2s0.9,0.7,1.5,0.7c0.6,0,1.1-0.2,1.5-0.7c0.4-0.5,0.6-1.2,0.6-2.2c0-1-0.2-1.7-0.6-2.2S18,4.7,17.4,4.7
			c-0.6,0-1.1,0.2-1.5,0.7C15.5,5.9,15.3,6.6,15.3,7.6z"/>
		<path class="st1" d="M22.3,9.3l1.3-0.2c0.1,0.5,0.3,0.9,0.6,1.2c0.3,0.3,0.8,0.4,1.4,0.4c0.6,0,1.1-0.1,1.3-0.4
			c0.3-0.2,0.4-0.5,0.4-0.9c0-0.3-0.1-0.5-0.4-0.7c-0.2-0.1-0.6-0.3-1.3-0.4c-1-0.2-1.6-0.5-2-0.6c-0.4-0.2-0.7-0.4-0.8-0.7
			c-0.2-0.3-0.3-0.7-0.3-1c0-0.3,0.1-0.7,0.2-1c0.2-0.3,0.4-0.5,0.6-0.7c0.2-0.2,0.5-0.3,0.8-0.4c0.4-0.1,0.7-0.2,1.1-0.2
			c0.6,0,1.1,0.1,1.6,0.3c0.5,0.2,0.8,0.4,1,0.7c0.2,0.3,0.4,0.7,0.5,1.2L27.1,6c-0.1-0.4-0.2-0.7-0.5-0.9c-0.3-0.2-0.7-0.3-1.2-0.3
			c-0.6,0-1,0.1-1.3,0.3c-0.3,0.2-0.4,0.4-0.4,0.7c0,0.2,0.1,0.3,0.2,0.5c0.1,0.1,0.3,0.3,0.5,0.4c0.1,0,0.5,0.2,1.2,0.3
			c0.9,0.2,1.6,0.5,2,0.6c0.4,0.2,0.7,0.4,0.9,0.7s0.3,0.7,0.3,1.1c0,0.4-0.1,0.9-0.4,1.2c-0.3,0.4-0.6,0.7-1.1,0.9
			c-0.5,0.2-1,0.3-1.6,0.3c-1,0-1.8-0.2-2.3-0.6S22.4,10.1,22.3,9.3z"/>
	</g>
	<g class="st0">
		<path class="st1" d="M43.7,11.6v-1.1c-0.6,0.9-1.4,1.3-2.5,1.3c-0.5,0-0.9-0.1-1.3-0.3c-0.4-0.2-0.7-0.4-0.9-0.7
			c-0.2-0.3-0.3-0.6-0.4-1c-0.1-0.3-0.1-0.7-0.1-1.2V3.8h1.3v4.3c0,0.7,0,1.2,0.1,1.4c0.1,0.3,0.3,0.6,0.5,0.8
			c0.3,0.2,0.6,0.3,1,0.3s0.8-0.1,1.1-0.3c0.3-0.2,0.6-0.5,0.7-0.8c0.1-0.3,0.2-0.9,0.2-1.5V3.8h1.3v7.8H43.7z"/>
		<path class="st1" d="M46.4,9.3l1.3-0.2c0.1,0.5,0.3,0.9,0.6,1.2c0.3,0.3,0.8,0.4,1.4,0.4c0.6,0,1.1-0.1,1.3-0.4
			c0.3-0.2,0.4-0.5,0.4-0.9c0-0.3-0.1-0.5-0.4-0.7c-0.2-0.1-0.6-0.3-1.3-0.4c-1-0.2-1.6-0.5-2-0.6c-0.4-0.2-0.7-0.4-0.8-0.7
			c-0.2-0.3-0.3-0.7-0.3-1c0-0.3,0.1-0.7,0.2-1c0.2-0.3,0.4-0.5,0.6-0.7C47.7,4,48,3.9,48.4,3.8c0.4-0.1,0.7-0.2,1.1-0.2
			c0.6,0,1.1,0.1,1.6,0.3c0.5,0.2,0.8,0.4,1,0.7c0.2,0.3,0.4,0.7,0.5,1.2L51.3,6c-0.1-0.4-0.2-0.7-0.5-0.9c-0.3-0.2-0.7-0.3-1.2-0.3
			c-0.6,0-1,0.1-1.3,0.3c-0.3,0.2-0.4,0.4-0.4,0.7c0,0.2,0.1,0.3,0.2,0.5c0.1,0.1,0.3,0.3,0.5,0.4c0.1,0,0.5,0.2,1.2,0.3
			c0.9,0.2,1.6,0.5,2,0.6c0.4,0.2,0.7,0.4,0.9,0.7s0.3,0.7,0.3,1.1c0,0.4-0.1,0.9-0.4,1.2c-0.3,0.4-0.6,0.7-1.1,0.9
			c-0.5,0.2-1,0.3-1.6,0.3c-1,0-1.8-0.2-2.3-0.6C46.9,10.7,46.6,10.1,46.4,9.3z"/>
	</g>
</g>
<g id="Cochon_2">
	<path class="st2" d="M30.1,6.5C29.8,6.6,29.2,6.8,29,7c-0.1,0.2-0.1,1.1,0.1,1.2c0.1,0.1,0.6,0.5,0.8,0.5"/>
	<polyline class="st2" points="32,10.8 32,11.6 31.5,11.6 31.4,10.5 	"/>
	<polyline class="st3" points="31.7,10.7 31.8,11.6 32.1,11.6 32.2,10.9 	"/>
	<polyline class="st2" points="31.9,10.8 31.9,11.7 32.6,11.7 32.6,11 	"/>
	<polyline class="st2" points="35.5,10.8 35.5,11.5 34.9,11.5 34.8,10.9 	"/>
	<polyline class="st3" points="35.3,10.8 35.3,11.5 35.6,11.5 35.7,10.7 	"/>
	<polyline class="st2" points="35.4,10.8 35.5,11.6 36.2,11.6 36.2,10.4 	"/>
	<path class="st2" d="M31.6,5.2V4.3c0,0,0.8,0.1,0.9,0.6"/>
	<path class="st4" d="M37.5,7.9C37.9,8,39.1,7.3,38,7.1c-0.6-0.1-0.4,0.8,0.3,0.8"/>
	<ellipse class="st3" cx="29.4" cy="7.6" rx="0.3" ry="0.5"/>
	<path class="st2" d="M37.6,7.9c0,1.7-1.4,3.2-3.9,3.2s-3.9-1.4-3.9-3.2c0-1.7,1.4-3.1,3.9-3.1C36.2,4.8,37.6,6.2,37.6,7.9z"/>
	<path class="st5" d="M31.6,6.4c0,0.3-0.1,0.4-0.3,0.4c-0.2,0-0.1-0.1-0.1-0.3s0-0.4,0.1-0.4S31.6,6.1,31.6,6.4z"/>
</g>
</svg>
