<?xml version="1.0" encoding="utf-8"?>
<!-- Generator: Adobe Illustrator 26.1.0, SVG Export Plug-In . SVG Version: 6.00 Build 0)  -->
<svg version="1.1" xmlns="http://www.w3.org/2000/svg" xmlns:xlink="http://www.w3.org/1999/xlink" x="0px" y="0px"
	 viewBox="0 0 176.2 73.6" style="enable-background:new 0 0 176.2 73.6;" xml:space="preserve">
<style type="text/css">
	.st0{fill:#FFB0A0;}
	.st1{fill:#EF9A83;}
	.st2{fill:none;stroke:#FFB0A0;stroke-width:0.1628;stroke-miterlimit:10;}
	.st3{fill:#050505;}
	.st4{fill:#21295C;}
	.st5{fill:none;}
	.st6{fill:none;stroke:#FFB0A0;stroke-width:0.5917;stroke-miterlimit:10;}
	.st7{fill:#FFD700;}
	.st8{fill:#FFFFFF;}
	.st9{fill:#CC9900;}
	.st10{fill:none;stroke:#FFB0A0;stroke-width:0.731;stroke-miterlimit:10;}
</style>
<g id="logo_1">
	<g id="Calque_1">
	</g>
	<g id="Cochon_2">
	</g>
</g>
<g id="logo_2">
	<g>
		<path class="st4" d="M5.4,16.6c2.3-0.4,5.3-0.7,9.1-0.7c4.7,0,8.1,1.1,10.3,3c2,1.7,3.2,4.4,3.2,7.7c0,3.3-1,5.9-2.8,7.8
			c-2.5,2.7-6.6,4-11.2,4c-1.4,0-2.7-0.1-3.8-0.3v14.7H5.4V16.6z M10.1,34.3c1,0.3,2.3,0.4,3.9,0.4c5.7,0,9.2-2.8,9.2-7.8
			c0-4.8-3.4-7.2-8.6-7.2c-2.1,0-3.6,0.2-4.5,0.4V34.3z"/>
		<path class="st4" d="M38.6,19.1c0.1,1.6-1.1,2.9-3,2.9c-1.7,0-2.9-1.3-2.9-2.9c0-1.7,1.2-3,3-3C37.4,16.1,38.6,17.4,38.6,19.1z
			 M33.2,52.8V26.5H38v26.3H33.2z"/>
		<path class="st4" d="M68.6,26.5c-0.1,1.9-0.2,4-0.2,7.2V49c0,6-1.2,9.7-3.7,12c-2.6,2.4-6.2,3.2-9.6,3.2c-3.2,0-6.6-0.8-8.7-2.2
			l1.2-3.6c1.7,1.1,4.5,2.1,7.7,2.1c4.9,0,8.5-2.6,8.5-9.2v-2.9h-0.1c-1.5,2.4-4.3,4.4-8.4,4.4c-6.5,0-11.2-5.5-11.2-12.8
			c0-8.9,5.8-14,11.8-14c4.6,0,7.1,2.4,8.2,4.6h0.1l0.2-4H68.6z M63.6,36.9c0-0.8-0.1-1.5-0.3-2.2c-0.9-2.8-3.2-5.1-6.7-5.1
			c-4.6,0-7.8,3.9-7.8,9.9c0,5.2,2.6,9.5,7.8,9.5c2.9,0,5.6-1.8,6.6-4.9c0.3-0.8,0.4-1.7,0.4-2.6V36.9z"/>
		<path class="st4" d="M75.7,47.9c1.4,0.9,3.9,1.9,6.3,1.9c3.5,0,5.1-1.7,5.1-3.9c0-2.3-1.4-3.5-4.9-4.8c-4.7-1.7-7-4.3-7-7.4
			c0-4.2,3.4-7.7,9.1-7.7c2.7,0,5,0.8,6.5,1.6L89.6,31c-1-0.7-2.9-1.5-5.4-1.5c-2.8,0-4.4,1.6-4.4,3.6c0,2.2,1.6,3.2,5,4.5
			c4.6,1.7,6.9,4,6.9,7.9c0,4.6-3.6,7.9-9.8,7.9c-2.9,0-5.5-0.7-7.4-1.8L75.7,47.9z"/>
		<path class="st5" d="M121.6,39.4c0,9.7-6.7,14-13.1,14c-7.1,0-12.6-5.2-12.6-13.5c0-8.8,5.8-14,13-14
			C116.5,25.9,121.6,31.4,121.6,39.4z M100.7,39.7c0,5.8,3.3,10.1,8,10.1c4.6,0,8-4.3,8-10.2c0-4.5-2.2-10.1-7.9-10.1
			C103.2,29.5,100.7,34.7,100.7,39.7z"/>
		<path class="st4" d="M149.6,45.6c0,2.7,0.1,5.1,0.2,7.2h-4.2l-0.3-4.3h-0.1c-1.2,2.1-4,4.9-8.7,4.9c-4.1,0-9.1-2.3-9.1-11.5V26.5
			h4.8v14.6c0,5,1.5,8.4,5.9,8.4c3.2,0,5.4-2.2,6.3-4.3c0.3-0.7,0.4-1.6,0.4-2.4V26.5h4.8V45.6z"/>
		<path class="st4" d="M156.9,47.9c1.4,0.9,3.9,1.9,6.3,1.9c3.5,0,5.1-1.7,5.1-3.9c0-2.3-1.4-3.5-4.9-4.8c-4.7-1.7-7-4.3-7-7.4
			c0-4.2,3.4-7.7,9.1-7.7c2.7,0,5,0.8,6.5,1.6l-1.2,3.5c-1-0.7-2.9-1.5-5.4-1.5c-2.8,0-4.4,1.6-4.4,3.6c0,2.2,1.6,3.2,5,4.5
			c4.6,1.7,6.9,4,6.9,7.9c0,4.6-3.6,7.9-9.8,7.9c-2.9,0-5.5-0.7-7.4-1.8L156.9,47.9z"/>
	</g>
	<g id="Calque_5">
		<path class="st0" d="M95.9,34.4c-0.9,0.3-3.3,1.1-4,2c-0.5,0.6-0.3,4,0.2,4.4c0.5,0.4,2.2,1.8,3,1.8"/>
		<polyline class="st0" points="102.6,49.9 102.6,52.8 100.9,52.8 100.6,49 		"/>
		<polyline class="st1" points="101.8,49.5 101.9,52.8 103.2,52.8 103.4,50.1 		"/>
		<polyline class="st0" points="102.5,49.8 102.5,53.2 105,53.3 104.9,50.5 		"/>
		<polyline class="st0" points="115.3,49.8 115.4,52.5 113.3,52.6 113.1,50.5 		"/>
		<polyline class="st1" points="114.6,50.1 114.8,52.5 116,52.5 116,49.6 		"/>
		<polyline class="st0" points="115.3,49.9 115.4,53 118,53 117.8,48.6 		"/>
		<path class="st0" d="M101.4,29.5l0.1-3.2c0,0,2.8,0.3,3.2,2.1"/>
		<path class="st6" d="M122.9,39.5c1.5,0.5,5.9-2.1,1.8-2.9c-2.2-0.4-1.4,3,1.2,2.8"/>
		<ellipse class="st1" cx="93.3" cy="38.1" rx="1.1" ry="1.7"/>
		<path class="st0" d="M123,39.4c0,6.3-5.2,11.5-14.1,11.5s-14.2-5.2-14.2-11.5s5.3-11.3,14.2-11.3S123,33.1,123,39.4z"/>
		<path class="st3" d="M101.4,33.8c0,0.9-0.4,1.3-1,1.3s-0.5-0.3-0.5-1.3s-0.1-1.4,0.5-1.4C101,32.5,101.4,32.9,101.4,33.8z"/>
	</g>
	<g id="Piece">
		<circle class="st7" cx="36.2" cy="16.7" r="7.8"/>
		<g>
			<path class="st8" d="M34.7,13.9c0.4-0.1,0.8-0.1,1.5-0.1c0.7,0,1.3,0.2,1.6,0.5c0.3,0.3,0.5,0.7,0.5,1.2c0,0.5-0.2,0.9-0.5,1.3
				c-0.4,0.4-1.1,0.6-1.8,0.6c-0.2,0-0.4,0-0.6-0.1v2.3h-0.8V13.9z M35.4,16.7c0.2,0,0.4,0.1,0.6,0.1c0.9,0,1.5-0.4,1.5-1.3
				c0-0.8-0.5-1.1-1.4-1.1c-0.3,0-0.6,0-0.7,0.1V16.7z"/>
		</g>
		<g>
			<path class="st9" d="M29.9,17h-1.4c0,0,0,0,0,0v-0.5c0,0,0,0,0,0h1.4c0,0,0,0,0,0L29.9,17C29.9,17,29.9,17,29.9,17z"/>
			<path class="st9" d="M43.8,17h-1.4c0,0,0,0,0,0v-0.5c0,0,0,0,0,0h1.4c0,0,0,0,0,0L43.8,17C43.8,17,43.8,17,43.8,17z"/>
			<path class="st9" d="M29.9,16.4l-1.4-0.1c0,0,0,0,0,0l0-0.5c0,0,0,0,0,0l1.4,0.1c0,0,0,0,0,0L29.9,16.4
				C29.9,16.4,29.9,16.4,29.9,16.4z"/>
			<path class="st9" d="M43.7,17.8l-1.4-0.1c0,0,0,0,0,0l0-0.5c0,0,0,0,0,0l1.4,0.1c0,0,0,0,0,0L43.7,17.8
				C43.8,17.8,43.8,17.8,43.7,17.8z"/>
			<path class="st9" d="M29.9,15.8l-1.3-0.3c0,0,0,0,0,0l0.1-0.5c0,0,0,0,0,0l1.3,0.3c0,0,0,0,0,0L29.9,15.8
				C30,15.7,29.9,15.8,29.9,15.8z"/>
			<path class="st9" d="M43.6,18.5l-1.3-0.3c0,0,0,0,0,0l0.1-0.5c0,0,0,0,0,0l1.3,0.3c0,0,0,0,0,0L43.6,18.5
				C43.6,18.5,43.6,18.5,43.6,18.5z"/>
			<path class="st9" d="M30,15.2l-1.3-0.4c0,0,0,0,0,0l0.1-0.5c0,0,0,0,0,0l1.3,0.4c0,0,0,0,0,0L30,15.2C30.1,15.2,30,15.2,30,15.2z
				"/>
			<path class="st9" d="M43.4,19.2l-1.3-0.4c0,0,0,0,0,0l0.1-0.5c0,0,0,0,0,0l1.3,0.4c0,0,0,0,0,0L43.4,19.2
				C43.4,19.2,43.4,19.2,43.4,19.2z"/>
			<path class="st9" d="M30.2,14.6L29,14c0,0,0,0,0,0l0.2-0.5c0,0,0,0,0,0l1.3,0.5c0,0,0,0,0,0L30.2,14.6
				C30.3,14.6,30.3,14.6,30.2,14.6z"/>
			<path class="st9" d="M43.1,19.9l-1.3-0.5c0,0,0,0,0,0l0.2-0.5c0,0,0,0,0,0l1.3,0.5c0,0,0,0,0,0L43.1,19.9
				C43.1,19.9,43.1,19.9,43.1,19.9z"/>
			<path class="st9" d="M30.5,14l-1.2-0.7c0,0,0,0,0,0l0.2-0.4c0,0,0,0,0,0l1.2,0.7c0,0,0,0,0,0L30.5,14C30.5,14,30.5,14,30.5,14z"
				/>
			<path class="st9" d="M42.7,20.6L41.5,20c0,0,0,0,0,0l0.2-0.4c0,0,0,0,0,0l1.2,0.7c0,0,0,0,0,0L42.7,20.6
				C42.8,20.6,42.7,20.6,42.7,20.6z"/>
			<path class="st9" d="M30.8,13.4l-1.1-0.8c0,0,0,0,0,0l0.3-0.4c0,0,0,0,0,0l1.1,0.8c0,0,0,0,0,0L30.8,13.4
				C30.8,13.4,30.8,13.4,30.8,13.4z"/>
			<path class="st9" d="M42.3,21.3l-1.1-0.8c0,0,0,0,0,0l0.3-0.4c0,0,0,0,0,0l1.1,0.8c0,0,0,0,0,0L42.3,21.3
				C42.3,21.3,42.3,21.3,42.3,21.3z"/>
			<path class="st9" d="M31.1,12.9l-1-0.9c0,0,0,0,0,0l0.3-0.4c0,0,0,0,0,0l1,0.9c0,0,0,0,0,0L31.1,12.9
				C31.2,12.9,31.1,12.9,31.1,12.9z"/>
			<path class="st9" d="M41.8,21.9l-1-0.9c0,0,0,0,0,0l0.3-0.4c0,0,0,0,0,0l1,0.9c0,0,0,0,0,0L41.8,21.9
				C41.8,21.9,41.8,21.9,41.8,21.9z"/>
			<path class="st9" d="M31.5,12.4l-1-1c0,0,0,0,0,0l0.4-0.3c0,0,0,0,0,0l1,1c0,0,0,0,0,0L31.5,12.4C31.6,12.4,31.5,12.4,31.5,12.4z
				"/>
			<path class="st9" d="M41.2,22.4l-1-1c0,0,0,0,0,0l0.4-0.3c0,0,0,0,0,0l1,1c0,0,0,0,0,0L41.2,22.4C41.3,22.5,41.2,22.5,41.2,22.4z
				"/>
			<path class="st9" d="M32,12l-0.8-1.1c0,0,0,0,0,0l0.4-0.3c0,0,0,0,0,0l0.8,1.1c0,0,0,0,0,0L32,12C32,12,32,12,32,12z"/>
			<path class="st9" d="M40.6,22.9l-0.8-1.1c0,0,0,0,0,0l0.4-0.3c0,0,0,0,0,0l0.8,1.1c0,0,0,0,0,0L40.6,22.9
				C40.6,23,40.6,23,40.6,22.9z"/>
			<path class="st9" d="M32.6,11.5l-0.7-1.2c0,0,0,0,0,0l0.4-0.3c0,0,0,0,0,0l0.7,1.2c0,0,0,0,0,0L32.6,11.5
				C32.6,11.6,32.6,11.5,32.6,11.5z"/>
			<path class="st9" d="M39.9,23.4l-0.7-1.2c0,0,0,0,0,0l0.4-0.3c0,0,0,0,0,0l0.7,1.2c0,0,0,0,0,0L39.9,23.4
				C39.9,23.5,39.9,23.4,39.9,23.4z"/>
			<path class="st9" d="M33.2,11.2l-0.6-1.2c0,0,0,0,0,0L33,9.7c0,0,0,0,0,0l0.6,1.2c0,0,0,0,0,0L33.2,11.2
				C33.2,11.2,33.2,11.2,33.2,11.2z"/>
			<path class="st9" d="M39.1,23.8l-0.6-1.2c0,0,0,0,0,0l0.4-0.2c0,0,0,0,0,0l0.6,1.2c0,0,0,0,0,0L39.1,23.8
				C39.1,23.8,39.1,23.8,39.1,23.8z"/>
			<path class="st9" d="M33.8,10.9l-0.4-1.3c0,0,0,0,0,0l0.5-0.2c0,0,0,0,0,0l0.4,1.3c0,0,0,0,0,0L33.8,10.9
				C33.8,10.9,33.8,10.9,33.8,10.9z"/>
			<path class="st9" d="M38.3,24.1l-0.4-1.3c0,0,0,0,0,0l0.5-0.2c0,0,0,0,0,0l0.4,1.3c0,0,0,0,0,0L38.3,24.1
				C38.3,24.1,38.3,24.1,38.3,24.1z"/>
			<path class="st9" d="M34.5,10.7l-0.3-1.3c0,0,0,0,0,0l0.5-0.1c0,0,0,0,0,0l0.3,1.3c0,0,0,0,0,0L34.5,10.7
				C34.5,10.7,34.5,10.7,34.5,10.7z"/>
			<path class="st9" d="M37.4,24.3L37.1,23c0,0,0,0,0,0l0.5-0.1c0,0,0,0,0,0l0.3,1.3c0,0,0,0,0,0L37.4,24.3
				C37.4,24.3,37.4,24.3,37.4,24.3z"/>
			<path class="st9" d="M35.2,10.5l-0.1-1.4c0,0,0,0,0,0l0.5,0c0,0,0,0,0,0l0.1,1.4c0,0,0,0,0,0L35.2,10.5
				C35.2,10.5,35.2,10.5,35.2,10.5z"/>
			<path class="st9" d="M36.5,24.4L36.3,23c0,0,0,0,0,0l0.5,0c0,0,0,0,0,0l0.1,1.4c0,0,0,0,0,0L36.5,24.4
				C36.5,24.4,36.5,24.4,36.5,24.4z"/>
			<path class="st9" d="M35.9,10.4l0-1.4c0,0,0,0,0,0l0.5,0c0,0,0,0,0,0l0,1.4c0,0,0,0,0,0L35.9,10.4C35.9,10.5,35.9,10.5,35.9,10.4
				z"/>
			<path class="st9" d="M35.6,24.4l0-1.4c0,0,0,0,0,0l0.5,0c0,0,0,0,0,0l0,1.4c0,0,0,0,0,0L35.6,24.4C35.6,24.4,35.6,24.4,35.6,24.4
				z"/>
			<path class="st9" d="M36.6,10.5l0.2-1.4c0,0,0,0,0,0l0.5,0.1c0,0,0,0,0,0l-0.2,1.4c0,0,0,0,0,0L36.6,10.5
				C36.6,10.5,36.6,10.5,36.6,10.5z"/>
			<path class="st9" d="M34.7,24.3l0.2-1.4c0,0,0,0,0,0l0.5,0.1c0,0,0,0,0,0l-0.2,1.4c0,0,0,0,0,0L34.7,24.3
				C34.7,24.3,34.7,24.3,34.7,24.3z"/>
			<path class="st9" d="M37.3,10.5l0.3-1.3c0,0,0,0,0,0l0.5,0.1c0,0,0,0,0,0l-0.3,1.3c0,0,0,0,0,0L37.3,10.5
				C37.3,10.6,37.3,10.6,37.3,10.5z"/>
			<path class="st9" d="M33.9,24.1l0.3-1.3c0,0,0,0,0,0l0.5,0.1c0,0,0,0,0,0l-0.3,1.3c0,0,0,0,0,0L33.9,24.1
				C33.9,24.1,33.9,24.1,33.9,24.1z"/>
			<path class="st9" d="M37.9,10.7l0.5-1.3c0,0,0,0,0,0l0.5,0.2c0,0,0,0,0,0l-0.5,1.3c0,0,0,0,0,0L37.9,10.7
				C37.9,10.7,37.9,10.7,37.9,10.7z"/>
			<path class="st9" d="M33,23.8l0.5-1.3c0,0,0,0,0,0l0.5,0.2c0,0,0,0,0,0l-0.5,1.3c0,0,0,0,0,0L33,23.8C33,23.8,33,23.8,33,23.8z"
				/>
			<path class="st9" d="M38.7,11l0.6-1.2c0,0,0,0,0,0l0.4,0.2c0,0,0,0,0,0l-0.6,1.2c0,0,0,0,0,0L38.7,11C38.7,11,38.7,11,38.7,11z"
				/>
			<path class="st9" d="M32.2,23.3l0.6-1.2c0,0,0,0,0,0l0.4,0.2c0,0,0,0,0,0l-0.6,1.2c0,0,0,0,0,0L32.2,23.3
				C32.2,23.4,32.2,23.3,32.2,23.3z"/>
			<path class="st9" d="M39.3,11.2l0.8-1.1c0,0,0,0,0,0l0.4,0.3c0,0,0,0,0,0l-0.8,1.1c0,0,0,0,0,0L39.3,11.2
				C39.3,11.3,39.3,11.2,39.3,11.2z"/>
			<path class="st9" d="M31.5,22.8l0.8-1.1c0,0,0,0,0,0l0.4,0.3c0,0,0,0,0,0L32,23.1c0,0,0,0,0,0L31.5,22.8
				C31.5,22.8,31.5,22.8,31.5,22.8z"/>
			<path class="st9" d="M39.8,11.6l0.9-1.1c0,0,0,0,0,0l0.4,0.3c0,0,0,0,0,0l-0.9,1.1c0,0,0,0,0,0L39.8,11.6
				C39.8,11.6,39.8,11.6,39.8,11.6z"/>
			<path class="st9" d="M30.9,22.3l0.9-1.1c0,0,0,0,0,0l0.4,0.3c0,0,0,0,0,0l-0.9,1.1c0,0,0,0,0,0L30.9,22.3
				C30.9,22.4,30.9,22.3,30.9,22.3z"/>
			<path class="st9" d="M40.3,12l1-1c0,0,0,0,0,0l0.3,0.3c0,0,0,0,0,0l-1,1c0,0,0,0,0,0L40.3,12C40.3,12,40.3,12,40.3,12z"/>
			<path class="st9" d="M30.4,21.8l1-1c0,0,0,0,0,0l0.3,0.3c0,0,0,0,0,0l-1,1c0,0,0,0,0,0L30.4,21.8C30.4,21.8,30.4,21.8,30.4,21.8z
				"/>
			<path class="st9" d="M40.8,12.4l1.1-0.8c0,0,0,0,0,0l0.3,0.4c0,0,0,0,0,0l-1.1,0.8c0,0,0,0,0,0L40.8,12.4
				C40.8,12.5,40.8,12.5,40.8,12.4z"/>
			<path class="st9" d="M29.8,21l1.1-0.8c0,0,0,0,0,0l0.3,0.4c0,0,0,0,0,0l-1.1,0.8c0,0,0,0,0,0L29.8,21C29.8,21.1,29.8,21,29.8,21z
				"/>
			<path class="st9" d="M41.3,13l1.2-0.7c0,0,0,0,0,0l0.3,0.4c0,0,0,0,0,0l-1.2,0.7c0,0,0,0,0,0L41.3,13C41.3,13,41.3,13,41.3,13z"
				/>
			<path class="st9" d="M29.5,20.4l1.2-0.7c0,0,0,0,0,0l0.3,0.4c0,0,0,0,0,0l-1.2,0.7c0,0,0,0,0,0L29.5,20.4
				C29.4,20.4,29.4,20.4,29.5,20.4z"/>
			<path class="st9" d="M41.6,13.6l1.2-0.6c0,0,0,0,0,0l0.2,0.4c0,0,0,0,0,0l-1.2,0.6c0,0,0,0,0,0L41.6,13.6
				C41.6,13.6,41.6,13.6,41.6,13.6z"/>
			<path class="st9" d="M29.1,19.6l1.2-0.6c0,0,0,0,0,0l0.2,0.4c0,0,0,0,0,0l-1.2,0.6c0,0,0,0,0,0L29.1,19.6
				C29.1,19.6,29.1,19.6,29.1,19.6z"/>
			<path class="st9" d="M41.9,14.1l1.3-0.5c0,0,0,0,0,0l0.2,0.5c0,0,0,0,0,0l-1.3,0.5c0,0,0,0,0,0L41.9,14.1
				C41.9,14.2,41.9,14.1,41.9,14.1z"/>
			<path class="st9" d="M28.8,18.8l1.3-0.5c0,0,0,0,0,0l0.2,0.5c0,0,0,0,0,0L29,19.3c0,0,0,0,0,0L28.8,18.8
				C28.8,18.8,28.8,18.8,28.8,18.8z"/>
			<path class="st9" d="M42.1,14.8l1.3-0.3c0,0,0,0,0,0l0.1,0.5c0,0,0,0,0,0l-1.3,0.3c0,0,0,0,0,0L42.1,14.8
				C42.1,14.8,42.1,14.8,42.1,14.8z"/>
			<path class="st9" d="M28.5,18l1.3-0.3c0,0,0,0,0,0l0.1,0.5c0,0,0,0,0,0l-1.3,0.3c0,0,0,0,0,0L28.5,18C28.5,18.1,28.5,18,28.5,18z
				"/>
			<path class="st9" d="M42.3,15.5l1.4-0.2c0,0,0,0,0,0l0.1,0.5c0,0,0,0,0,0l-1.4,0.2c0,0,0,0,0,0L42.3,15.5
				C42.3,15.6,42.3,15.5,42.3,15.5z"/>
			<path class="st9" d="M28.5,17.2l1.4-0.2c0,0,0,0,0,0l0.1,0.5c0,0,0,0,0,0l-1.4,0.2c0,0,0,0,0,0L28.5,17.2
				C28.5,17.3,28.5,17.2,28.5,17.2z"/>
		</g>
	</g>
</g>
<g id="logo_3">
	<g id="Calque_8">
	</g>
</g>
<g id="logo_4">
</g>
</svg>
