<?xml version="1.0" encoding="utf-8"?>
<!-- Generator: Adobe Illustrator 26.3.1, SVG Export Plug-In . SVG Version: 6.00 Build 0)  -->
<svg version="1.1" id="Calque_1" xmlns="http://www.w3.org/2000/svg" xmlns:xlink="http://www.w3.org/1999/xlink" x="0px" y="0px"
	 viewBox="0 0 280 150" style="enable-background:new 0 0 280 150;" xml:space="preserve">
<style type="text/css">
	.st0{enable-background:new    ;}
	.st1{fill:#21295C;}
	.st2{fill:#FFB0A0;}
	.st3{fill:#EF9A83;}
	.st4{fill:none;stroke:#FFB0A0;stroke-width:0.8757;stroke-miterlimit:10;}
	.st5{fill:#050505;}
</style>
<g id="Calque_1_00000139980674095429468380000006365282186240130751_">
	<g class="st0">
		<path class="st1" d="M1,95V37.4h22.1c3.2,0,6.5,0,8.6,0.5c2.7,0.5,5.4,1.6,7,2.7c2.2,1.1,3.2,3.2,4.8,5.4c1.1,2.7,1.6,4.8,1.6,8.1
			c0,4.8-1.6,9.1-4.8,12.4c-3.2,3.2-8.6,4.8-16.7,4.8H8.5V95H1z M8.5,64.9h15.1c4.8,0,8.6-1.1,10.8-2.7s2.7-4.8,2.7-8.1
			c0-2.2-0.5-4.3-1.6-6.5c-1.6-1.6-3.2-2.7-4.8-3.2c-1.6,0-3.8-0.5-7.5-0.5H8.5V64.9z"/>
		<path class="st1" d="M53.7,45.5v-8.1h7v8.1H53.7z M53.7,95V53h7v42H53.7z"/>
		<path class="st1" d="M70.4,98.8l7,1.1c0.5,2.2,1.1,3.8,2.2,4.8c1.6,1.1,4.3,2.2,7,2.2c3.2,0,5.9-0.5,7.5-2.2
			c1.6-1.6,3.2-3.2,3.8-5.4c0.5-1.6,0.5-4.3,0.5-9.1c-3.2,3.8-7,5.4-11.8,5.4c-5.9,0-10.2-2.2-13.4-6.5c-3.2-4.3-4.8-9.1-4.8-15.1
			c0-3.8,0.5-7.5,2.2-11.3c2.2-3.2,4.3-5.9,7-7.5s5.9-2.7,9.7-2.7c4.8,0,9.1,2.2,12.4,5.9V53h6.5v36c0,6.5-0.5,11.3-2.2,14
			c-1.1,2.7-3.2,4.8-6.5,6.5c-2.7,1.6-6.5,2.2-10.8,2.2c-4.8,0-9.1-1.1-11.8-3.2S70.4,103.1,70.4,98.8z M76.3,73.5
			c0,5.4,1.1,9.7,3.2,11.8c2.2,2.2,4.8,3.8,8.1,3.8c3.2,0,5.9-1.1,8.1-3.8c2.2-2.7,3.2-6.5,3.2-11.8s-1.1-9.1-3.2-11.8
			c-2.2-2.7-4.8-3.8-8.1-3.8s-5.9,1.1-8.1,3.8C77.4,64.3,76.3,68.1,76.3,73.5z"/>
		<path class="st1" d="M114,82.6l7-1.1c0.5,2.7,1.6,4.8,3.2,6.5c1.6,1.6,4.3,2.2,7.5,2.2s5.9-0.5,7-2.2c1.6-1.1,2.2-2.7,2.2-4.8
			c0-1.6-0.5-2.7-2.2-3.8c-1.1-0.5-3.2-1.6-7-2.2c-5.4-1.1-8.6-2.7-10.8-3.2c-2.2-1.1-3.8-2.2-4.3-3.8c-1.1-1.6-1.6-3.8-1.6-5.4
			s0.5-3.8,1.1-5.4c1.1-1.6,2.2-2.7,3.2-3.8c1.1-1.1,2.7-1.6,4.3-2.2c2.2-0.5,3.8-1.1,5.9-1.1c3.2,0,5.9,0.5,8.6,1.6
			s4.3,2.2,5.4,3.8s2.2,3.8,2.7,6.5l-6.5,0.5c-0.5-2.2-1.1-3.8-2.7-4.8s-3.8-1.6-6.5-1.6c-3.2,0-5.4,0.5-7,1.6
			c-1.6,1.1-2.2,2.2-2.2,3.8c0,1.1,0.5,1.6,1.1,2.7c0.5,0.5,1.6,1.6,2.7,2.2c0.5,0,2.7,1.1,6.5,1.6c4.8,1.1,8.6,2.7,10.8,3.2
			c2.2,1.1,3.8,2.2,4.8,3.8c1.1,1.6,1.6,3.8,1.6,5.9s-0.5,4.8-2.2,6.5c-1.6,2.2-3.2,3.8-5.9,4.8s-5.4,1.6-8.6,1.6
			c-5.4,0-9.7-1.1-12.4-3.2S114.5,86.9,114,82.6z"/>
	</g>
	<g class="st0">
		<path class="st1" d="M229.1,95v-5.9c-3.2,4.8-7.5,7-13.4,7c-2.7,0-4.8-0.5-7-1.6s-3.8-2.2-4.8-3.8s-1.6-3.2-2.2-5.4
			c-0.5-1.6-0.5-3.8-0.5-6.5V53h7v23.1c0,3.8,0,6.5,0.5,7.5c0.5,1.6,1.6,3.2,2.7,4.3c1.6,1.1,3.2,1.6,5.4,1.6c2.2,0,4.3-0.5,5.9-1.6
			c1.6-1.1,3.2-2.7,3.8-4.3c0.5-1.6,1.1-4.8,1.1-8.1V53h7v42H229.1z"/>
		<path class="st1" d="M243.6,82.6l7-1.1c0.5,2.7,1.6,4.8,3.2,6.5s4.3,2.2,7.5,2.2s5.9-0.5,7-2.2c1.6-1.1,2.2-2.7,2.2-4.8
			c0-1.6-0.5-2.7-2.2-3.8c-1.1-0.5-3.2-1.6-7-2.2c-5.4-1.1-8.6-2.7-10.8-3.2c-2.2-1.1-3.8-2.2-4.3-3.8c-1.1-1.6-1.6-3.8-1.6-5.4
			s0.5-3.8,1.1-5.4c1.1-1.6,2.2-2.7,3.2-3.8c1.6-1.6,3.2-2.2,5.4-2.7s3.8-1.1,5.9-1.1c3.2,0,5.9,0.5,8.6,1.6s4.3,2.2,5.4,3.8
			c1.1,1.6,2.2,3.8,2.7,6.5l-7,1.1c-0.5-2.2-1.1-3.8-2.7-4.8s-3.8-1.6-6.5-1.6c-3.2,0-5.4,0.5-7,1.6c-1.6,1.1-2.2,2.2-2.2,3.8
			c0,1.1,0.5,1.6,1.1,2.7c0.5,0.5,1.6,1.6,2.7,2.2c0.5,0,2.7,1.1,6.5,1.6c4.8,1.1,8.6,2.7,10.8,3.2c2.2,1.1,3.8,2.2,4.8,3.8
			s1.6,3.8,1.6,5.9s-0.5,4.8-2.2,6.5c-1.6,2.2-3.2,3.8-5.9,4.8s-5.4,1.6-8.6,1.6c-5.4,0-9.7-1.1-12.4-3.2
			C246.3,90.2,244.7,86.9,243.6,82.6z"/>
	</g>
</g>
<g id="Cochon_2">
	<path class="st2" d="M155.9,67.6c-1.6,0.5-4.8,1.6-5.9,2.7c-0.5,1.1-0.5,5.9,0.5,6.5c0.5,0.5,3.2,2.7,4.3,2.7"/>
	<polyline class="st2" points="166.1,90.7 166.1,95 163.4,95 162.9,89.1 	"/>
	<polyline class="st3" points="164.5,90.2 165.1,95 166.7,95 167.2,91.2 	"/>
	<polyline class="st2" points="165.6,90.7 165.6,95.5 169.4,95.5 169.4,91.8 	"/>
	<polyline class="st2" points="185,90.7 185,94.5 181.7,94.5 181.2,91.2 	"/>
	<polyline class="st3" points="183.9,90.7 183.9,94.5 185.5,94.5 186,90.2 	"/>
	<polyline class="st2" points="184.4,90.7 185,95 188.7,95 188.7,88.5 	"/>
	<path class="st2" d="M164,60.6v-4.8c0,0,4.3,0.5,4.8,3.2"/>
	<path class="st4" d="M195.7,75.1c2.2,0.5,8.6-3.2,2.7-4.3c-3.2-0.5-2.2,4.3,1.6,4.3"/>
	<ellipse class="st3" cx="152.2" cy="73.5" rx="1.6" ry="2.7"/>
	<path class="st2" d="M196.3,75.1c0,9.1-7.5,17.2-21,17.2s-21-7.5-21-17.2c0-9.1,7.5-16.7,21-16.7C188.7,58.4,196.3,65.9,196.3,75.1
		z"/>
	<path class="st5" d="M164,67c0,1.6-0.5,2.2-1.6,2.2s-0.5-0.5-0.5-1.6s0-2.2,0.5-2.2S164,65.4,164,67z"/>
</g>
</svg>
