<?xml version="1.0" encoding="utf-8"?>
<!-- Generator: Adobe Illustrator 26.3.1, SVG Export Plug-In . SVG Version: 6.00 Build 0)  -->
<svg version="1.1" xmlns="http://www.w3.org/2000/svg" xmlns:xlink="http://www.w3.org/1999/xlink" x="0px" y="0px"
	 viewBox="0 0 48 48" style="enable-background:new 0 0 48 48;" xml:space="preserve">
<style type="text/css">
	.st0{fill:#FFB0A0;}
	.st1{fill:#EF9A83;}
	.st2{fill:none;stroke:#FFB0A0;stroke-width:0.1628;stroke-miterlimit:10;}
	.st3{fill:#050505;}
	.st4{fill:none;stroke:#FFB0A0;stroke-width:0.5979;stroke-miterlimit:10;}
	.st5{fill:#FFD700;}
	.st6{fill:#CC9900;}
	.st7{fill:none;stroke:#FFB0A0;stroke-width:0.731;stroke-miterlimit:10;}
	.st8{fill:#21295C;}
</style>
<g id="logo_1">
	<g id="Calque_1">
	</g>
	<g id="Cochon_2">
	</g>
</g>
<g id="logo_2">
	<g id="Calque_5">
	</g>
	<g id="Piece">
	</g>
</g>
<g id="logo_3">
	<g id="Calque_8">
		<path class="st0" d="M6.6,19.8c-1.2,0.4-4.1,1.4-4.9,2.4C1.1,23,1.3,27.1,2,27.6s2.7,2.3,3.7,2.3"/>
		<polyline class="st0" points="14.9,38.9 14.9,42.5 12.7,42.5 12.4,37.8 		"/>
		<polyline class="st1" points="13.9,38.5 14,42.5 15.6,42.5 15.9,39.2 		"/>
		<polyline class="st0" points="14.7,38.8 14.7,43 17.9,43.1 17.7,39.7 		"/>
		<polyline class="st0" points="30.6,38.8 30.7,42.1 28.1,42.2 27.8,39.6 		"/>
		<polyline class="st1" points="29.6,39.1 29.9,42.1 31.4,42.2 31.4,38.5 		"/>
		<polyline class="st0" points="30.5,38.9 30.7,42.7 33.9,42.7 33.7,37.3 		"/>
		<path class="st0" d="M13.4,13.7l0.1-3.9c0,0,3.4,0.4,3.9,2.6"/>
		<path class="st7" d="M40,26c1.8,0.6,7.3-2.6,2.2-3.6c-2.7-0.5-1.7,3.7,1.4,3.5"/>
		<ellipse class="st1" cx="3.3" cy="24.4" rx="1.4" ry="2.1"/>
		<path class="st0" d="M40.1,25.9c0,7.8-6.4,14.2-17.4,14.2S5.1,33.7,5.1,25.9s6.5-14,17.6-14S40.1,18.1,40.1,25.9z"/>
		<path class="st3" d="M13.4,19c0,1.1-0.5,1.6-1.3,1.6c-0.8,0-0.7-0.4-0.7-1.6c0-1.1-0.1-1.7,0.7-1.7S13.4,17.9,13.4,19z"/>
	</g>
	<g>
		<g>
			<path class="st8" d="M16.6,7.3c0.4-0.2,0.9-0.3,1.6-0.5C19,6.6,19.6,6.7,20,6.9c0.3,0.2,0.6,0.6,0.6,1.1c0,0.5-0.2,0.9-0.5,1.2
				c-0.4,0.4-1,0.8-1.8,0.9c-0.2,0-0.4,0.1-0.6,0.1c0.1,0.9,0.1,1.3,0.2,2.2c-0.3,0.1-0.4,0.1-0.7,0.2C16.9,10.5,16.8,9.4,16.6,7.3z
				 M17.6,9.7c0.2,0,0.4,0,0.6-0.1c0.9-0.2,1.5-0.7,1.5-1.4c0-0.7-0.6-1-1.5-0.8c-0.4,0.1-0.6,0.2-0.8,0.2
				C17.5,8.4,17.6,8.8,17.6,9.7z"/>
			<path class="st8" d="M22.4,6.7c0,0.2-0.2,0.5-0.5,0.5c-0.3,0-0.5-0.2-0.5-0.4c0-0.3,0.2-0.5,0.5-0.5C22.2,6.3,22.4,6.5,22.4,6.7z
				 M21.3,11.9c0.1-1.6,0.1-2.4,0.1-4c0.3,0,0.5,0,0.8,0c-0.1,1.6-0.1,2.4-0.2,4C21.7,11.9,21.6,11.9,21.3,11.9z"/>
			<path class="st8" d="M27.3,8.2c-0.1,0.3-0.2,0.6-0.3,1.1c-0.2,0.9-0.3,1.4-0.5,2.3c-0.2,0.9-0.5,1.4-0.9,1.7
				c-0.4,0.3-0.9,0.4-1.4,0.3c-0.4,0-0.9-0.2-1.2-0.4c0.1-0.2,0.1-0.3,0.2-0.5c0.2,0.2,0.6,0.3,1,0.4c0.7,0.1,1.2-0.3,1.4-1.3
				c0-0.2,0.1-0.3,0.1-0.4c0,0,0,0,0,0c-0.3,0.3-0.7,0.6-1.3,0.5c-0.9-0.1-1.5-0.9-1.4-2c0.1-1.4,1.2-2.1,2.2-2
				c0.8,0.1,1.1,0.5,1.2,0.8c0,0,0,0,0,0c0.1-0.2,0.1-0.4,0.2-0.6C26.9,8.1,27,8.2,27.3,8.2z M26.2,9.6c0-0.1,0-0.2,0-0.3
				c-0.1-0.4-0.4-0.8-0.9-0.9c-0.7-0.1-1.3,0.5-1.4,1.4c-0.1,0.8,0.2,1.4,1,1.5c0.4,0,0.9-0.2,1.1-0.6c0.1-0.1,0.1-0.3,0.1-0.4
				C26.1,10.1,26.1,9.9,26.2,9.6z"/>
			<path class="st8" d="M27.6,11.6c0.2,0.2,0.5,0.4,0.8,0.5c0.5,0.1,0.8,0,0.9-0.4c0.1-0.3,0-0.6-0.5-0.9c-0.6-0.4-0.9-0.9-0.7-1.4
				c0.2-0.6,0.8-1,1.7-0.8c0.4,0.1,0.7,0.4,0.9,0.6c-0.1,0.2-0.2,0.3-0.4,0.4c-0.1-0.1-0.4-0.4-0.7-0.5c-0.4-0.1-0.7,0.1-0.8,0.3
				c-0.1,0.3,0.1,0.5,0.6,0.9c0.6,0.5,0.8,0.9,0.6,1.5c-0.2,0.7-0.9,1-1.7,0.7c-0.4-0.1-0.7-0.3-1-0.5
				C27.4,11.9,27.5,11.8,27.6,11.6z"/>
			<path class="st8" d="M34.4,13c-0.7,1.3-1.8,1.4-2.6,1c-0.9-0.4-1.4-1.5-0.9-2.7c0.5-1.3,1.6-1.7,2.7-1.2
				C34.6,10.7,35,11.9,34.4,13z M31.5,11.6c-0.3,0.8-0.1,1.6,0.5,1.9c0.6,0.3,1.3,0,1.7-0.9c0.3-0.6,0.4-1.6-0.4-2
				C32.5,10.2,31.8,10.9,31.5,11.6z"/>
			<path class="st8" d="M37.4,16.4c-0.2,0.3-0.4,0.6-0.6,0.9c-0.2-0.2-0.3-0.3-0.5-0.4c0.1-0.2,0.2-0.3,0.3-0.6c0,0,0,0,0,0
				c-0.3,0.1-0.9,0.2-1.4-0.2c-0.5-0.4-0.9-1.1-0.2-2.3c0.5-0.8,0.7-1.2,1.1-2c0.3,0.2,0.4,0.3,0.7,0.4c-0.5,0.8-0.7,1.1-1.1,1.9
				c-0.4,0.7-0.5,1.2,0,1.6c0.4,0.3,0.8,0.2,1.1,0c0.1-0.1,0.2-0.2,0.3-0.3c0.6-0.8,0.8-1.2,1.4-2c0.2,0.2,0.4,0.3,0.6,0.5
				C38.4,15,38,15.4,37.4,16.4z"/>
			<path class="st8" d="M38,17.4c0.1,0.3,0.2,0.7,0.5,0.9c0.4,0.4,0.7,0.4,0.9,0.2c0.2-0.3,0.2-0.6,0-1.1c-0.3-0.8-0.4-1.3-0.1-1.7
				c0.4-0.5,1.1-0.5,1.8,0.2c0.3,0.3,0.5,0.7,0.6,1c-0.2,0.1-0.3,0.1-0.5,0.2c0-0.2-0.2-0.6-0.4-0.9c-0.3-0.4-0.7-0.4-0.8-0.1
				c-0.2,0.3-0.1,0.6,0.1,1.1c0.3,0.8,0.3,1.3-0.1,1.7c-0.5,0.5-1.1,0.4-1.8-0.3c-0.3-0.3-0.5-0.7-0.6-1
				C37.7,17.6,37.8,17.6,38,17.4z"/>
		</g>
	</g>
</g>
<g id="logo_4">
</g>
</svg>
