<?xml version="1.0" encoding="utf-8"?>
<!-- Generator: Adobe Illustrator 26.1.0, SVG Export Plug-In . SVG Version: 6.00 Build 0)  -->
<svg version="1.1" xmlns="http://www.w3.org/2000/svg" xmlns:xlink="http://www.w3.org/1999/xlink" x="0px" y="0px"
	 viewBox="0 0 48 48" style="enable-background:new 0 0 48 48;" xml:space="preserve">
<style type="text/css">
	.st0{fill:#21295C;}
	.st1{font-family:'MyriadPro-Regular';}
	.st2{font-size:14.9432px;}
	.st3{fill:none;}
	.st4{fill:#FFB0A0;}
	.st5{fill:#EF9A83;}
	.st6{fill:none;stroke:#FFB0A0;stroke-width:0.1628;stroke-miterlimit:10;}
	.st7{fill:#050505;}
	.st8{fill:#FFD700;}
	.st9{fill:#CC9900;}
	.st10{fill:none;stroke:#FFB0A0;stroke-width:0.731;stroke-miterlimit:10;}
</style>
<g id="logo_1">
	<g id="Calque_1">
		<text transform="matrix(1 0 0 1 0.1215 28.4092)"><tspan x="0" y="0" class="st0 st1 st2">Pigs</tspan><tspan x="25.7" y="0" class="st3 st1 st2">o</tspan><tspan x="33.9" y="0" class="st0 st1 st2">us</tspan></text>
	</g>
	<g id="Cochon_2">
		<path class="st4" d="M26.1,23.3c-0.3,0.1-0.9,0.3-1.1,0.5c-0.1,0.2-0.1,1.1,0.1,1.2c0.1,0.1,0.6,0.5,0.8,0.5"/>
		<polyline class="st4" points="28,27.6 28,28.4 27.5,28.4 27.4,27.3 		"/>
		<polyline class="st5" points="27.7,27.5 27.8,28.4 28.1,28.4 28.2,27.7 		"/>
		<polyline class="st4" points="27.9,27.6 27.9,28.5 28.6,28.5 28.6,27.8 		"/>
		<polyline class="st4" points="31.5,27.6 31.5,28.3 30.9,28.3 30.8,27.7 		"/>
		<polyline class="st5" points="31.3,27.6 31.3,28.3 31.6,28.3 31.7,27.5 		"/>
		<polyline class="st4" points="31.4,27.6 31.5,28.4 32.2,28.4 32.2,27.2 		"/>
		<path class="st4" d="M27.6,22l0-0.9c0,0,0.8,0.1,0.9,0.6"/>
		<path class="st6" d="M33.5,24.7c0.4,0.1,1.6-0.6,0.5-0.8c-0.6-0.1-0.4,0.8,0.3,0.8"/>
		<ellipse class="st5" cx="25.4" cy="24.4" rx="0.3" ry="0.5"/>
		<path class="st4" d="M33.6,24.7c0,1.7-1.4,3.2-3.9,3.2s-3.9-1.4-3.9-3.2c0-1.7,1.4-3.1,3.9-3.1S33.6,23,33.6,24.7z"/>
		<path class="st7" d="M27.6,23.2c0,0.3-0.1,0.4-0.3,0.4c-0.2,0-0.1-0.1-0.1-0.3s0-0.4,0.1-0.4S27.6,22.9,27.6,23.2z"/>
	</g>
</g>
<g id="logo_2">
	<g id="Calque_5">
	</g>
	<g id="Piece">
	</g>
</g>
<g id="logo_3">
	<g id="Calque_8">
	</g>
</g>
<g id="logo_4">
</g>
</svg>
